<?xml version="1.0" encoding="UTF-8" standalone="no"?>
<svg width="66px" height="62px" viewBox="0 0 66 62" version="1.1" xmlns="http://www.w3.org/2000/svg" xmlns:xlink="http://www.w3.org/1999/xlink">
    <!-- Generator: Sketch 3.6.1 (26313) - http://www.bohemiancoding.com/sketch -->
    <title>Artboard 1 Copy 3</title>
    <desc>Created with Sketch.</desc>
    <defs>
        <path id="path-1" d="M0,0.547029258 L0,21.2641995 L18.1543352,21.2641995 L18.1543352,0.547029258 L5.57402327e-21,0.547029258 L0,0.547029258 Z"></path>
        <path id="path-3" d="M0,40.45306 L50.4299516,40.45306 L50.4299516,0.82 L0,0.82 L0,40.45306 Z"></path>
    </defs>
    <g id="Page-1" stroke="none" stroke-width="1" fill="none" fill-rule="evenodd">
        <g id="Artboard-1-Copy-3">
            <g id="Page-1" transform="translate(7.000000, 10.000000)">
                <path d="M5.24354032,15.860276 C4.99923387,15.860276 4.80099194,16.057896 4.80099194,16.300616 C4.80099194,16.544156 4.99923387,16.741776 5.24354032,16.741776 C5.48702419,16.741776 5.68526613,16.544156 5.68526613,16.300616 C5.68526613,16.057896 5.48702419,15.860276 5.24354032,15.860276 L5.24354032,15.860276 Z" id="Fill-1" fill="#939597"></path>
                <path d="M7.92655161,8.870268 C8.17085806,8.870268 8.3691,8.672648 8.3691,8.429928 C8.3691,8.186388 8.17085806,7.988768 7.92655161,7.988768 C7.68224516,7.988768 7.48482581,8.186388 7.48482581,8.429928 C7.48482581,8.672648 7.68224516,8.870268 7.92655161,8.870268" id="Fill-3" fill="#939597"></path>
                <path d="M10.2734565,8.870268 C10.5177629,8.870268 10.7151823,8.672648 10.7151823,8.429928 C10.7151823,8.186388 10.5177629,7.988768 10.2734565,7.988768 C10.02915,7.988768 9.83173065,8.186388 9.83173065,8.429928 C9.83173065,8.672648 10.02915,8.870268 10.2734565,8.870268" id="Fill-5" fill="#939597"></path>
                <path d="M12.9114726,16.74112 C13.155779,16.74112 13.3531984,16.5435 13.3531984,16.30078 C13.3531984,16.05724 13.155779,15.85962 12.9114726,15.85962 C12.6671661,15.85962 12.4697468,16.05724 12.4697468,16.30078 C12.4697468,16.5435 12.6671661,16.74112 12.9114726,16.74112" id="Fill-7" fill="#939597"></path>
                <g id="Group-11" transform="translate(0.000000, 0.273060)">
                    <mask id="mask-2" fill="white">
                        <use xlink:href="#path-1"></use>
                    </mask>
                    <g id="Clip-10"></g>
                    <path d="M5.74276452,20.204472 C5.14228065,20.358632 4.65202258,20.504592 4.39044194,20.587412 C3.9330871,20.045392 2.45161935,18.285672 2.0205871,17.687892 C1.37239355,16.787532 1.32303871,16.223372 1.32139355,16.204512 C1.2383129,15.407472 1.46287742,14.690792 1.9695871,14.130732 C2.55526452,13.482112 3.49300645,13.094252 4.47516774,13.094252 C5.36273226,13.094252 5.99282903,13.468992 6.65911935,13.865052 C7.34597419,14.273412 8.05668387,14.694892 9.0882,14.728512 C10.098329,14.694892 10.8082161,14.273412 11.495071,13.865052 C12.1621839,13.468992 12.7914581,13.094252 13.6790226,13.094252 C14.6620065,13.094252 15.5989258,13.482112 16.1854258,14.130732 C16.6921355,14.690792 16.9158774,15.407472 16.8319742,16.218452 C16.8311516,16.223372 16.7826194,16.787532 16.1344258,17.687892 C15.7033935,18.285672 14.2219258,20.045392 13.7637484,20.587412 C13.5029903,20.504592 13.0127323,20.358632 12.4114258,20.204472 C11.495071,19.972412 10.1830548,19.692792 9.14002258,19.692792 C9.11863548,19.692792 9.09807097,19.696072 9.07750645,19.700172 C9.05694194,19.696072 9.03555484,19.692792 9.01416774,19.692792 C7.97113548,19.692792 6.65994194,19.972412 5.74276452,20.204472 L5.74276452,20.204472 Z M5.06824839,7.293572 C5.10526452,7.173032 5.06660323,7.042652 4.97036129,6.962292 C4.87494194,6.881932 4.74003871,6.863892 4.62734516,6.920472 C3.44694194,7.501032 2.49768387,7.605172 1.80424839,7.232072 C1.07544194,6.836832 0.785070968,5.990592 0.680603226,5.558452 L5.68765161,4.252192 C5.79376452,4.225132 5.87766774,4.143132 5.90892581,4.038992 C5.94100645,3.934032 5.91550645,3.821692 5.84311935,3.739692 L4.71453871,2.471152 C5.59552258,2.638432 6.93386129,3.002512 7.52365161,3.739692 C7.58616774,3.817592 7.67911935,3.857772 7.7835871,3.856132 C7.88394194,3.852852 7.97689355,3.800372 8.03200645,3.717552 C8.23436129,3.413332 8.38489355,3.116492 8.52966774,2.829492 C8.81428065,2.263692 9.05611935,1.783172 9.61300645,1.465012 C9.42052258,1.960292 9.33250645,2.535112 9.25600645,3.036132 L9.22392581,3.241952 C9.20418387,3.369052 9.2625871,3.493692 9.3728129,3.560112 C9.48221613,3.626532 9.62123226,3.619152 9.72405484,3.542892 C10.1542645,3.220632 11.2121032,2.527732 12.1407968,2.214492 C11.7747484,2.610552 11.3873129,3.095992 11.2894258,3.460892 C11.2491194,3.613412 11.3264419,3.770032 11.4703935,3.831532 L12.4673613,4.252192 L17.4744097,5.558452 C17.3699419,5.990592 17.079571,6.836832 16.3507645,7.232072 C15.6565065,7.605172 14.7072484,7.501032 13.5276677,6.920472 C13.4157968,6.863892 13.2808935,6.881932 13.183829,6.962292 C13.0884097,7.042652 13.0497484,7.173032 13.0867645,7.293572 L14.6998452,12.598972 C14.3708129,12.520252 14.0319097,12.466132 13.6790226,12.466132 C12.6187161,12.466132 11.883329,12.903192 11.1726194,13.324672 C10.5252484,13.709252 9.91489355,14.071692 9.0882,14.101212 C8.24011935,14.071692 7.62894194,13.709252 6.98157097,13.324672 C6.27168387,12.903192 5.53629677,12.466132 4.47516774,12.466132 C4.12228065,12.466132 3.78337742,12.520252 3.45516774,12.598972 L5.06824839,7.293572 Z M9.07750645,20.315992 C9.09807097,20.320092 9.11863548,20.322552 9.14002258,20.322552 C10.1172484,20.322552 11.3741516,20.589872 12.2559581,20.812912 C13.1180226,21.033492 13.7629258,21.246692 13.7686839,21.248332 C13.8015871,21.258992 13.8353129,21.263912 13.8682161,21.263912 C13.9595226,21.263912 14.0483613,21.224552 14.1092323,21.153212 C14.1914903,21.056452 16.1220871,18.781772 16.646071,18.055252 C17.4036677,17.004012 17.4579581,16.326692 17.4604258,16.269292 C17.5624258,15.291032 17.2827484,14.406252 16.6534742,13.709252 C16.3195065,13.341072 15.8991677,13.052432 15.4319419,12.841692 C15.4311194,12.840872 15.4319419,12.838412 15.4311194,12.836772 L13.8879581,7.762612 C14.9828129,8.177532 15.9115065,8.185732 16.6551194,7.781472 C17.9399903,7.083652 18.1448129,5.433812 18.1522161,5.364112 C18.1703129,5.209952 18.0707806,5.063992 17.9194258,5.023812 L12.6705387,3.658512 L12.0141194,3.378892 C12.2748774,2.951672 12.8844097,2.327652 13.2767806,1.974232 C13.3705548,1.888952 13.4042806,1.756932 13.3631516,1.637212 C13.3212,1.518312 13.2117968,1.434672 13.0851194,1.427292 C12.0955548,1.369072 10.7399419,2.118552 9.96178065,2.617932 C10.0687161,2.025892 10.2348774,1.395312 10.5803613,1.099292 C10.6905871,1.006632 10.7218452,0.850832 10.6585065,0.722092 C10.5943452,0.594172 10.4520387,0.525292 10.3113774,0.553172 C8.81263548,0.865592 8.38242581,1.720032 7.9662,2.547412 C7.8855871,2.706492 7.80332903,2.869672 7.71284516,3.032852 C6.47568387,1.957012 4.0433129,1.731512 3.93061935,1.721672 C3.80311935,1.710192 3.67973226,1.778252 3.62132903,1.893052 C3.56374839,2.008672 3.58184516,2.147252 3.66739355,2.243192 L5.03040968,3.774132 L0.235587097,5.023812 C0.0834096774,5.063992 -0.0161225806,5.209952 0.00197419355,5.364112 C0.0102,5.433812 0.215022581,7.083652 1.49989355,7.781472 C2.24350645,8.185732 3.17137742,8.177532 4.26623226,7.762612 L2.72389355,12.836772 C2.72307097,12.838412 2.72389355,12.840872 2.72307097,12.841692 C2.25584516,13.052432 1.83550645,13.341072 1.50071613,13.709252 C0.871441935,14.406252 0.592587097,15.291032 0.692941935,16.252892 C0.697054839,16.326692 0.751345161,17.004012 1.50894194,18.055252 C2.03292581,18.781772 3.96352258,21.056452 4.04578065,21.153212 C4.12886129,21.250792 4.26294194,21.288512 4.38632903,21.248332 C4.3920871,21.246692 5.03699032,21.033492 5.89823226,20.812912 C6.78086129,20.589872 8.03694194,20.322552 9.01416774,20.322552 C9.03555484,20.322552 9.05694194,20.320092 9.07750645,20.315992 L9.07750645,20.315992 Z" id="Fill-9" fill="#939597" mask="url(#mask-2)"></path>
                </g>
                <path d="M35.8432935,11.608084 C35.8432935,12.396104 36.7176968,12.853664 37.8248903,13.430944 C39.386971,14.245204 41.3299065,15.258724 41.9048903,17.549804 C42.1615355,18.574804 41.681971,19.380044 40.4777129,19.942564 C37.9746,21.113524 33.5079871,20.666624 32.3777613,19.131584 C31.3552935,17.741684 29.8861645,17.575224 28.1834226,17.381704 C26.5950194,17.201304 24.6175355,16.977444 22.3620194,15.692504 C21.1733903,15.015184 20.5358903,14.214864 20.4667935,13.310404 C20.3434065,11.686804 22.0453258,10.127984 22.4442774,9.786864 L36.6601161,9.901664 C36.2331968,10.264924 35.8432935,10.813504 35.8432935,11.608084 M49.8682935,26.541924 C49.7539548,26.470584 49.6239871,26.421384 49.4825032,26.394324 C49.3081161,26.360704 49.1460677,26.473044 49.1131645,26.643604 C49.0802613,26.814164 49.1929548,26.978984 49.3640516,27.010964 C49.4298581,27.024084 49.4874387,27.045404 49.535971,27.075744 C49.8131806,27.247944 49.7991968,27.716164 49.7983742,27.736664 L49.7983742,29.844884 C48.9412452,29.663664 48.8770839,28.743624 48.8721484,28.639484 L48.8721484,15.825344 C48.9124548,13.685144 48.3185516,12.012344 47.1068903,10.853684 C45.181229,9.009504 42.4132452,9.150544 42.3153581,9.157924 L22.3463903,9.157924 L22.2230032,9.157104 L22.2213581,9.157924 L17.3516806,9.157924 C17.1772935,9.157924 17.0358097,9.298964 17.0358097,9.471984 C17.0358097,9.645004 17.1772935,9.785224 17.3516806,9.785224 L21.5221645,9.785224 C20.803229,10.515024 19.7256484,11.870484 19.8383419,13.356324 C19.9230677,14.481364 20.6666806,15.451424 22.0486161,16.237804 C24.4176484,17.587524 26.4666968,17.819584 28.1126806,18.007364 C29.7948581,18.196784 31.0106323,18.334544 31.8694065,19.503044 C32.7183097,20.656784 34.8652452,21.216844 36.9891484,21.216844 C38.372729,21.216844 39.7472613,20.979864 40.7458742,20.511644 C42.2182935,19.823664 42.8475677,18.716664 42.5160677,17.398104 C41.8736323,14.833964 39.7020194,13.700724 38.1169065,12.873344 C37.2351,12.413324 36.4742129,12.015624 36.4742129,11.608084 C36.4742129,10.357584 37.8717774,9.916424 37.9310032,9.897564 L38.3003419,9.785224 L42.3342774,9.785224 C42.3597774,9.782764 44.9410355,9.650744 46.6709226,11.307144 C47.7501484,12.340344 48.2782452,13.855704 48.241229,15.819604 L48.2420516,28.649324 C48.2626161,29.291384 48.6813097,30.504984 50.1134226,30.504984 L50.428471,30.504984 L50.428471,27.754704 C50.4301161,27.721084 50.4696,26.915024 49.8682935,26.541924" id="Fill-12" fill="#939597"></path>
                <mask id="mask-4" fill="white">
                    <use xlink:href="#path-3"></use>
                </mask>
                <g id="Clip-15"></g>
                <path d="M41.5592419,39.82494 L43.3245,39.82494 L43.3245,37.89302 L41.5592419,37.89302 L41.5592419,39.82494 Z M14.9133871,39.44774 L14.6871774,37.89302 L16.3422097,37.89302 L16.3422097,39.44774 L14.9133871,39.44774 Z M46.1615806,16.82476 C45.9871935,16.82476 45.8457097,16.96498 45.8457097,17.138 L45.8457097,23.42248 C45.8457097,29.9833 43.4256774,32.86806 43.401,32.89512 C43.3516452,32.95334 43.3245,33.0255 43.3245,33.10094 L43.3245,37.26408 L41.5592419,37.26408 L41.5592419,33.6036 C41.5592419,33.53636 41.5378548,33.47158 41.4975484,33.41828 L38.3454194,29.14444 C38.2812581,29.05752 38.1776129,29.00668 38.0682097,29.01734 C37.9604516,29.02472 37.8633871,29.08868 37.8132097,29.18462 C37.7761935,29.2535 33.9725806,35.98652 16.7938065,27.79062 C16.6959194,27.74306 16.5807581,27.75044 16.4894516,27.80702 C16.3981452,27.86442 16.3422097,27.96528 16.3422097,28.0727 L16.3422097,37.26408 L14.595871,37.26408 L13.6918548,31.04438 C13.677871,30.95008 13.6219355,30.86808 13.5396774,30.8197 C13.5043065,30.79838 10.0198548,28.69262 9.65791935,23.76442 C9.65627419,23.75212 9.51396774,22.4639 9.65298387,21.80052 C9.68917742,21.63078 9.58059677,21.46432 9.4095,21.42824 C9.23840323,21.3938 9.07224194,21.50122 9.03604839,21.67096 C8.87564516,22.43356 9.02535484,23.77836 9.03029032,23.82346 C9.3798871,28.58356 12.4053387,30.82954 13.0889032,31.2789 L14.3285323,39.80772 C14.3507419,39.96188 14.484,40.07668 14.6402903,40.07668 L16.6580806,40.07668 C16.8316452,40.07668 16.973129,39.93564 16.973129,39.7618 L16.973129,28.57044 C32.079,35.64704 36.984871,31.30924 38.1027581,29.87588 L40.9291452,33.7061 L40.9291452,37.44776 C40.9102258,37.48794 40.8978871,37.5314 40.8978871,37.57814 C40.8978871,37.62652 40.9102258,37.66916 40.9291452,37.70934 L40.9291452,40.139 C40.9291452,40.31284 41.0698065,40.45306 41.2441935,40.45306 L43.6395484,40.45306 C43.8139355,40.45306 43.9545968,40.31284 43.9545968,40.139 L43.9545968,33.21246 C44.3938548,32.64994 46.476629,29.6553 46.476629,23.42248 L46.476629,17.138 C46.476629,16.96498 46.3351452,16.82476 46.1615806,16.82476 L46.1615806,16.82476 Z" id="Fill-14" fill="#939597" mask="url(#mask-4)"></path>
                <path d="M19.2575177,20.378312 C19.4919532,19.581272 20.0471952,18.949872 20.8228887,18.597272 C20.928179,18.550532 21.0342919,18.525932 21.1428726,18.525932 C21.253921,18.525932 21.3666145,18.550532 21.4842435,18.600552 C22.5593565,19.054012 23.5925177,21.354112 23.9149694,22.242172 C23.9955823,22.747292 24.3953565,23.003952 24.8181629,23.276192 C25.1899694,23.516452 25.6111306,23.787052 25.945921,24.288892 C26.59905,25.264692 26.2938726,26.207692 26.2979855,26.207692 C25.9376952,26.882552 25.3931468,27.239252 24.6816145,27.268772 C23.2272919,27.317152 21.3197274,26.028932 20.1162919,24.174092 C19.2402435,22.823552 18.9350661,21.475472 19.2575177,20.378312 M24.58455,27.900172 C24.625679,27.900172 24.6668081,27.898532 24.7079371,27.896892 C25.645679,27.857532 26.3876468,27.375372 26.8737919,26.459432 C26.8918887,26.408592 27.3048242,25.186792 26.4707274,23.940392 C26.0627274,23.331132 25.5625984,23.008052 25.1603565,22.749752 C24.7696306,22.497192 24.5639855,22.355332 24.5351952,22.127372 L24.5195661,22.060952 C24.4702113,21.923192 23.293921,18.682552 21.7301952,18.021632 C21.3328887,17.853532 20.9388726,17.855172 20.5613081,18.026552 C19.6169855,18.453772 18.939179,19.227032 18.652921,20.201192 C18.2778242,21.477932 18.6093242,23.008872 19.58655,24.515212 C20.8928081,26.526672 22.9286952,27.900172 24.58455,27.900172" id="Fill-16" fill="#939597" mask="url(#mask-4)"></path>
                <path d="M34.2664065,27.31707 C34.0278581,27.02597 33.9694548,26.72093 34.0854387,26.38883 C34.343729,25.65493 35.4015677,24.94891 36.6008903,24.71193 C37.4678903,24.54055 38.2123258,24.65617 38.698471,25.03419 C39.0423097,25.30151 39.2438419,25.69511 39.265229,26.14037 C39.2701645,26.23713 39.2380839,26.31339 39.1624065,26.38965 C38.7774387,26.77915 37.5320516,26.88985 36.8180516,26.86853 C36.479971,26.79883 36.2151,26.98743 35.9806645,27.15307 C35.7758419,27.29903 35.5636161,27.44827 35.2526806,27.51469 C34.7229387,27.62621 34.3503097,27.37939 34.2664065,27.31707 M35.383471,28.12887 C35.822729,28.03621 36.1254387,27.82137 36.3467129,27.66557 C36.5194548,27.54175 36.6263903,27.46549 36.6979548,27.48517 L36.766229,27.49583 C36.9833903,27.50403 38.8991806,27.54913 39.6115355,26.83163 C39.8097774,26.63073 39.9076645,26.38145 39.8953258,26.11003 C39.8648903,25.48027 39.5778097,24.92103 39.086729,24.53809 C38.4541645,24.04609 37.5279387,23.88865 36.4783258,24.09529 C35.0511484,24.37737 33.8230355,25.23591 33.4907129,26.18137 C33.2965839,26.73487 33.4051645,27.27525 33.8378419,27.78037 C33.8600516,27.79923 34.3009548,28.17151 34.9828742,28.17151 C35.108729,28.17151 35.2428097,28.15921 35.383471,28.12887" id="Fill-17" fill="#939597" mask="url(#mask-4)"></path>
            </g>
        </g>
    </g>
</svg>