<?xml version="1.0" encoding="UTF-8" standalone="no"?>
<svg width="28px" height="38px" viewBox="0 0 28 38" version="1.1" xmlns="http://www.w3.org/2000/svg" xmlns:xlink="http://www.w3.org/1999/xlink">
    <!-- Generator: Sketch 3.6.1 (26313) - http://www.bohemiancoding.com/sketch -->
    <title>Slice 1</title>
    <desc>Created with Sketch.</desc>
    <defs></defs>
    <g id="Page-1" stroke="none" stroke-width="1" fill="none" fill-rule="evenodd">
        <path d="M0,2.14393051 L0,35.184166 L0,37.5284366 L1.69209949,35.9059681 L14.2070998,23.9059681 L12.8229009,23.9059681 L25.3379012,35.9059681 L27.0300007,37.5284366 L27.0300007,35.184166 L27.0300007,2 L27.0300007,0.994233147 L26.0242505,1.00001653 L0.994249775,1.14394705 L0,1.1496643 L0,2.14393051 L0,2.14393051 Z M2,2.14393051 L1.00575022,3.14391398 L26.0357509,2.99998347 L25.0300007,2 L25.0300007,35.184166 L26.7221002,34.4623638 L14.2070998,22.4623638 L13.5150003,21.7987447 L12.8229009,22.4623638 L0.307900508,34.4623638 L2,35.184166 L2,2.14393051 L2,2.14393051 Z" id="Path-13" fill="#233368"></path>
    </g>
</svg>