<?xml version="1.0" encoding="UTF-8" standalone="no"?>
<svg width="56px" height="62px" viewBox="0 0 56 62" version="1.1" xmlns="http://www.w3.org/2000/svg" xmlns:xlink="http://www.w3.org/1999/xlink">
    <!-- Generator: Sketch 3.6.1 (26313) - http://www.bohemiancoding.com/sketch -->
    <title>Artboard 1</title>
    <desc>Created with Sketch.</desc>
    <defs>
        <path id="path-1" d="M31.232,4.9995 L31.232,0.4775 L0.2706,0.4775 L0.2706,4.9995 L31.232,4.9995 L31.232,4.9995 Z"></path>
    </defs>
    <g id="Page-1" stroke="none" stroke-width="1" fill="none" fill-rule="evenodd">
        <g id="Artboard-1">
            <g id="Page-1" transform="translate(8.000000, 8.000000)">
                <path d="M11.4707,8.003 C11.3277,8.191 11.1817,8.364 11.0397,8.563 C10.5247,9.291 10.1007,10.026 9.7227,10.764 L7.1627,11.084 L6.8497,8.581 L11.4707,8.003 Z M23.7387,1.567 L30.6547,0.8 C30.9837,2.27 31.9937,8.855 25.8997,15.956 C22.0407,19.876 18.8427,20.504 16.5087,20.962 C15.8537,21.09 15.2357,21.211 14.6947,21.389 L14.1537,21.566 C12.2127,22.258 11.2467,24.354 11.9537,26.338 C12.1287,26.827 12.3987,27.27 12.7447,27.644 C10.1557,27.228 9.0197,24.383 8.9687,24.257 C8.9447,24.176 6.5927,16.152 11.6647,9.006 C16.6077,2.045 23.6467,1.572 23.7387,1.567 L23.7387,1.567 Z M24.0217,21.118 L24.3627,23.843 C23.6227,24.171 18.7957,26.292 14.7667,27.484 C14.4887,27.566 14.2207,27.624 13.9637,27.657 C13.8847,27.608 13.8077,27.557 13.7327,27.502 C13.2447,27.144 12.8797,26.651 12.6767,26.08 C12.1047,24.475 12.8507,22.845 14.4017,22.292 L14.9337,22.117 C15.4287,21.954 15.9967,21.843 16.6567,21.714 C17.9687,21.456 19.5457,21.142 21.3547,20.266 L24.0217,21.118 Z M28.2047,18.276 L28.4497,20.236 L27.2867,20.382 C27.0767,20.408 26.9287,20.6 26.9547,20.81 C26.9797,21.004 27.1447,21.145 27.3337,21.145 C27.3507,21.145 27.3667,21.145 27.3827,21.142 L28.5447,20.997 L28.7417,22.568 L27.5787,22.715 C27.3687,22.741 27.2207,22.933 27.2467,23.143 C27.2717,23.337 27.4367,23.478 27.6257,23.478 C27.6427,23.478 27.6587,23.478 27.6747,23.475 L28.8367,23.33 L29.1327,25.691 L25.1307,23.816 L24.7787,20.994 L28.2047,18.276 Z M7.2587,11.845 L9.3147,11.588 C8.5327,13.322 8.0857,15.038 7.8577,16.628 L7.2587,11.845 Z M7.7047,21.189 C7.8567,23.175 8.2317,24.463 8.2437,24.506 C8.2617,24.551 9.8127,28.463 13.3887,28.463 C13.5337,28.463 13.6827,28.457 13.8337,28.442 C13.9127,28.46 13.9957,28.448 14.0697,28.417 C14.3627,28.378 14.6657,28.314 14.9837,28.22 C19.3747,26.92 24.6977,24.533 24.7787,24.496 L29.4377,26.68 C29.4897,26.704 29.5437,26.716 29.5997,26.716 C29.6787,26.716 29.7577,26.691 29.8247,26.643 C29.9387,26.561 29.9967,26.424 29.9797,26.286 L28.8807,17.507 C28.8647,17.369 28.7747,17.252 28.6457,17.198 C28.5187,17.147 28.3717,17.168 28.2637,17.254 L24.2927,20.399 L22.3027,19.765 C23.5877,19.024 24.9777,17.984 26.4627,16.474 C33.6407,8.113 31.4087,0.585 31.3097,0.269 C31.2557,0.094 31.0817,-0.015 30.9027,0.002 L23.6747,0.804 C23.3937,0.818 17.1717,1.232 12.1487,7.146 L6.3737,7.869 C6.2727,7.881 6.1817,7.933 6.1187,8.013 C6.0567,8.094 6.0297,8.195 6.0417,8.296 L7.6407,21.066 C7.6477,21.116 7.6837,21.148 7.7047,21.189 L7.7047,21.189 Z" id="Fill-1" fill="#939597"></path>
                <path d="M24.0576,4.6153 C24.0756,4.6133 24.0946,4.6123 24.1126,4.6123 C24.3286,4.6123 24.5196,4.7743 24.5476,4.9963 C24.5626,5.1133 24.5306,5.2273 24.4586,5.3203 C24.3866,5.4133 24.2826,5.4723 24.1666,5.4863 C23.9316,5.5173 23.7066,5.3463 23.6766,5.1053 C23.6466,4.8653 23.8176,4.6453 24.0576,4.6153 M24.1116,6.2573 C24.1616,6.2573 24.2116,6.2533 24.2616,6.2473 C24.5816,6.2073 24.8666,6.0463 25.0636,5.7913 C25.2616,5.5363 25.3486,5.2203 25.3076,4.9013 C25.2256,4.2413 24.6186,3.7703 23.9626,3.8553 C23.3026,3.9383 22.8336,4.5413 22.9156,5.2013 C22.9926,5.8093 23.5126,6.2573 24.1116,6.2573" id="Fill-3" fill="#939597"></path>
                <path d="M21.9492,11.2578 C22.8112,11.7988 23.7842,12.0798 24.7222,12.0798 C25.2072,12.0798 25.6822,12.0048 26.1282,11.8528 C26.3282,11.7838 26.4352,11.5668 26.3662,11.3648 C26.2982,11.1658 26.0802,11.0588 25.8802,11.1278 C24.7862,11.5008 23.4692,11.3068 22.3572,10.6088 C21.2722,9.9278 20.5292,8.8508 20.3682,7.7298 C20.3382,7.5198 20.1402,7.3748 19.9352,7.4038 C19.7252,7.4348 19.5802,7.6288 19.6102,7.8378 C19.8012,9.1798 20.6762,10.4578 21.9492,11.2578" id="Fill-5" fill="#939597"></path>
                <path d="M11.7012,38.5596 C13.3892,38.5596 14.8392,37.5416 15.4822,36.0896 C16.1252,37.5416 17.5752,38.5596 19.2642,38.5596 C20.9512,38.5596 22.4002,37.5416 23.0432,36.0896 C23.6872,37.5416 25.1372,38.5596 26.8242,38.5596 C29.1062,38.5596 30.9632,36.7046 30.9632,34.4206 C30.9632,34.2096 30.7912,34.0386 30.5792,34.0386 C30.3682,34.0386 30.1962,34.2096 30.1962,34.4206 C30.1962,36.2816 28.6832,37.7936 26.8242,37.7936 C24.9652,37.7936 23.4522,36.2816 23.4522,34.4206 C23.4522,34.2096 23.2812,34.0386 23.0692,34.0386 C23.0602,34.0386 23.0522,34.0426 23.0432,34.0426 C23.0342,34.0426 23.0272,34.0386 23.0182,34.0386 C22.8062,34.0386 22.6352,34.2096 22.6352,34.4206 C22.6352,36.2816 21.1222,37.7936 19.2642,37.7936 C17.4032,37.7936 15.8902,36.2816 15.8902,34.4206 C15.8902,34.2096 15.7192,34.0386 15.5072,34.0386 C15.4982,34.0386 15.4912,34.0426 15.4822,34.0426 C15.4732,34.0426 15.4652,34.0386 15.4562,34.0386 C15.2442,34.0386 15.0732,34.2096 15.0732,34.4206 C15.0732,36.2816 13.5602,37.7936 11.7012,37.7936 C9.8422,37.7936 8.3292,36.2816 8.3292,34.4206 C8.3292,34.2096 8.1572,34.0386 7.9462,34.0386 C7.9362,34.0386 7.9302,34.0426 7.9202,34.0426 C7.9112,34.0426 7.9042,34.0386 7.8942,34.0386 C7.6822,34.0386 7.5112,34.2096 7.5112,34.4206 C7.5112,36.2816 5.9982,37.7936 4.1392,37.7936 C2.2802,37.7936 0.7672,36.2816 0.7672,34.4206 C0.7672,34.2096 0.5962,34.0386 0.3842,34.0386 C0.1722,34.0386 0.0002,34.2096 0.0002,34.4206 C0.0002,36.7046 1.8572,38.5596 4.1392,38.5596 C5.8272,38.5596 7.2772,37.5416 7.9202,36.0896 C8.5632,37.5416 10.0132,38.5596 11.7012,38.5596" id="Fill-7" fill="#939597"></path>
                <g id="Group-11" transform="translate(10.000000, 40.918000)">
                    <mask id="mask-2" fill="white">
                        <use xlink:href="#path-1"></use>
                    </mask>
                    <g id="Clip-10"></g>
                    <path d="M30.8496,0.4775 C30.6386,0.4775 30.4656,0.6495 30.4656,0.8605 C30.4656,2.7205 28.9536,4.2325 27.0936,4.2325 C25.2346,4.2325 23.7226,2.7205 23.7226,0.8605 C23.7226,0.6495 23.5496,0.4775 23.3386,0.4775 C23.3286,0.4775 23.3226,0.4825 23.3136,0.4825 C23.3046,0.4825 23.2966,0.4775 23.2866,0.4775 C23.0766,0.4775 22.9056,0.6495 22.9056,0.8605 C22.9056,2.7205 21.3916,4.2325 19.5326,4.2325 C17.6726,4.2325 16.1606,2.7205 16.1606,0.8605 C16.1606,0.6495 15.9896,0.4775 15.7776,0.4775 C15.7686,0.4775 15.7606,0.4825 15.7506,0.4825 C15.7436,0.4825 15.7356,0.4775 15.7266,0.4775 C15.5146,0.4775 15.3426,0.6495 15.3426,0.8605 C15.3426,2.7205 13.8296,4.2325 11.9706,4.2325 C10.1116,4.2325 8.5996,2.7205 8.5996,0.8605 C8.5996,0.6495 8.4266,0.4775 8.2146,0.4775 C8.2056,0.4775 8.1996,0.4825 8.1906,0.4825 C8.1816,0.4825 8.1726,0.4775 8.1636,0.4775 C7.9536,0.4775 7.7816,0.6495 7.7816,0.8605 C7.7816,2.7205 6.2686,4.2325 4.4096,4.2325 C2.5486,4.2325 1.0366,2.7205 1.0366,0.8605 C1.0366,0.6495 0.8656,0.4775 0.6536,0.4775 C0.4426,0.4775 0.2706,0.6495 0.2706,0.8605 C0.2706,3.1425 2.1266,4.9995 4.4096,4.9995 C6.0976,4.9995 7.5456,3.9805 8.1906,2.5285 C8.8326,3.9805 10.2836,4.9995 11.9706,4.9995 C13.6586,4.9995 15.1086,3.9805 15.7506,2.5285 C16.3956,3.9805 17.8446,4.9995 19.5326,4.9995 C21.2196,4.9995 22.6696,3.9805 23.3136,2.5285 C23.9556,3.9805 25.4066,4.9995 27.0936,4.9995 C29.3756,4.9995 31.2326,3.1425 31.2326,0.8605 C31.2326,0.6495 31.0616,0.4775 30.8496,0.4775" id="Fill-9" fill="#939597" mask="url(#mask-2)"></path>
                </g>
            </g>
        </g>
    </g>
</svg>