<?xml version="1.0" encoding="UTF-8" standalone="no"?>
<svg width="511px" height="497px" viewBox="0 0 511 497" version="1.1" xmlns="http://www.w3.org/2000/svg" xmlns:xlink="http://www.w3.org/1999/xlink">
    <!-- Generator: Sketch 3.6.1 (26313) - http://www.bohemiancoding.com/sketch -->
    <title>Group 5</title>
    <desc>Created with Sketch.</desc>
    <defs></defs>
    <g id="Page-1" stroke="none" stroke-width="1" fill="none" fill-rule="evenodd">
        <g id="Artboard-1-Copy-3" transform="translate(-70.000000, -324.000000)">
            <g id="Group-5" transform="translate(-5.000000, 253.000000)">
                <g id="Group-2" transform="translate(60.000000, 56.000000)" stroke-width="2">
                    <ellipse id="Oval-47" stroke="#162732" cx="272.299316" cy="275.299316" rx="220.299316" ry="220.299316"></ellipse>
                    <ellipse id="Oval-47" stroke="#233368" stroke-linecap="round" stroke-dasharray="1,9" cx="272.166812" cy="275.166812" rx="156.166812" ry="156.166812"></ellipse>
                    <ellipse id="Oval-47" stroke="#233368" stroke-linecap="round" stroke-dasharray="1,9" cx="271.872522" cy="274.872522" rx="82.8725217" ry="82.8725217"></ellipse>
                    <polygon id="Star-2" stroke="#233368" stroke-linecap="round" stroke-dasharray="1,10" opacity="0.5" transform="translate(273.500000, 273.500000) rotate(-73.000000) translate(-273.500000, -273.500000) " points="273.5 273.5 145.068922 450.270213 273.5 273.5 65.6941512 205.979787 273.5 273.5 273.5 55 273.5 273.5 481.305849 205.979787 273.5 273.5 401.931078 450.270213 "></polygon>
                    <ellipse id="Oval-47" stroke="#233368" stroke-linecap="round" stroke-dasharray="1,9" fill="#FFFFFF" cx="271.655131" cy="274.655131" rx="21.6551313" ry="21.6551313"></ellipse>
                </g>
                <path d="M218.30923,480.862109 C151.678057,429.22295 171.667408,390.077136 198.319878,327.610411 C224.972347,265.143686 140.017601,201.844072 217.47634,171.860044 C294.935079,141.876016 417.36986,171.860044 446.520998,245.154334 C475.672136,318.448625 284.940403,532.501269 218.30923,480.862109 Z" id="Path-21" stroke="#233368" fill-opacity="0.57" fill="#7581A7"></path>
                <g id="Group" transform="translate(75.000000, 71.000000)">
                    <path d="M18.8950571,258.057166 C18.8950571,126.555438 125.498271,19.9522236 257,19.9522236 C388.501729,19.9522236 495.104943,126.555438 495.104943,258.057166 C495.104943,389.558895 388.501729,496.162109 257,496.162109 C125.498271,496.162109 18.8950571,389.558895 18.8950571,258.057166 Z" id="Oval-63"></path>
                    <path d="M475.087059,162.818487 C476.810528,166.392656 480.13573,168.057634 483.479307,166.445357 C486.678764,164.902574 486.706933,161.940331 486.416454,158.24359 C486.185208,155.406437 486.159368,153.216283 488.177043,152.243358 C489.90648,151.409421 491.813058,152.195316 492.911074,154.472407 C493.480931,155.654189 493.773369,157.218424 493.447071,158.015234 C493.090363,157.938557 492.618359,157.917475 492.157176,158.139858 C491.37893,158.51513 490.979033,159.454007 491.423799,160.376373 C491.812969,161.183443 492.751847,161.58334 493.818332,161.069079 C495.77836,160.123952 496.342338,156.725711 494.841252,153.612725 C493.131683,150.067381 489.886796,148.789987 486.975578,150.19378 C483.718473,151.76436 483.703176,154.826974 484.034327,158.681734 C484.240853,161.246598 484.237869,163.450651 482.277841,164.395779 C480.231342,165.382603 478.197621,164.480387 476.974514,161.94388 C476.140578,160.214444 476.007185,158.537991 476.335535,157.598088 C476.806512,157.690716 477.30734,157.697898 477.826171,157.447717 C478.575593,157.086345 478.946666,156.161367 478.515799,155.267824 C478.098831,154.403106 477.058557,154.087629 475.963247,154.615789 C474.118515,155.505321 473.294096,159.100199 475.087059,162.818487 L475.087059,162.818487 Z M480.287315,176.634617 L480.721116,177.736285 L490.809632,178.028297 L483.617034,185.090663 L484.062559,186.222106 L496.826338,185.185554 L497.576697,187.091142 L499.39296,186.375955 L497.083261,180.510318 L495.326547,181.202055 L496.170701,183.345841 L487.258501,184.207034 L494.211974,177.410785 L493.778172,176.309117 L484.046026,176.048736 L491.152674,170.602223 L491.949931,172.62691 L493.706645,171.935172 L491.396946,166.069535 L489.580682,166.784721 L490.319317,168.660534 L480.287315,176.634617 Z M495.652086,203.794643 C496.016904,203.789336 496.425479,203.704799 496.917426,203.562912 C500.176576,202.62291 502.494493,199.689679 501.368263,195.784848 C500.215431,191.787777 496.317206,190.281054 492.689096,191.327472 C488.692025,192.480305 486.731805,196.07637 487.937845,200.257921 C488.416714,201.918243 489.334905,203.48516 490.555255,204.59858 L492.668492,204.188908 C491.33344,202.908743 490.398678,201.746258 489.893205,199.993696 C489.077354,197.165 489.94189,194.850779 492.7434,193.709725 L495.652086,203.794643 Z M499.518736,196.18507 C500.23704,198.675553 499.019533,200.458794 496.75787,201.277624 L494.443337,193.252735 C497.022499,192.841899 498.94232,194.186535 499.518736,196.18507 L499.518736,196.18507 Z M498.662107,219.45827 C499.026487,219.476909 499.439728,219.41936 499.939924,219.310054 C503.253723,218.585901 505.759087,215.811063 504.89147,211.840756 C504.003358,207.776662 500.212385,206.017433 496.523438,206.823565 C492.459345,207.711677 490.267419,211.171389 491.196521,215.423056 C491.565429,217.111218 492.37884,218.735 493.523513,219.926085 L495.659074,219.65594 C494.410887,218.290944 493.554406,217.069636 493.165004,215.287687 C492.536494,212.41156 493.550997,210.159045 496.421333,209.204249 L498.662107,219.45827 Z M503.01967,212.118773 C503.573032,214.651016 502.241155,216.350538 499.930644,217.019221 L498.147588,208.859771 C500.748148,208.619032 502.575615,210.086726 503.01967,212.118773 L503.01967,212.118773 Z M493.129808,228.60158 C493.316006,229.835612 493.838937,230.727575 494.323674,231.366404 L496.455005,231.336076 C495.897435,230.643512 495.36973,229.719907 495.250372,228.928861 C495.126239,228.106173 495.271343,227.566483 495.707776,227.241734 C495.968681,227.040556 496.275551,226.929529 496.718537,226.862689 L504.755564,225.650013 L505.380999,229.795094 L507.311151,229.503861 L506.685716,225.35878 L510.799155,224.738119 L509.620172,222.715381 L506.361063,223.207135 L505.983892,220.70743 L504.05374,220.998663 L504.43091,223.498368 L496.077465,224.758787 C495.349703,224.868596 494.731189,225.059008 494.263114,225.388532 C493.300097,226.083995 492.914964,227.177697 493.129808,228.60158 L493.129808,228.60158 Z" id="Sweet" fill="#233368"></path>
                    <path d="M215.328464,23.7009277 C219.947541,22.6550671 222.211129,19.3208794 221.108736,14.4521226 L218.550617,3.15411013 L221.141045,2.56758021 L220.674648,0.507721582 L213.121833,2.21784495 L213.58823,4.27770358 L216.303499,3.66290716 L218.861617,14.9609196 C219.695479,18.6436972 218.156191,20.8295868 214.879143,21.5715825 C211.602096,22.3135782 209.281356,20.9032535 208.454561,17.251686 L205.910576,6.01609345 L208.625844,5.40129703 L208.159446,3.3414384 L200.575422,5.05862839 L201.041819,7.11848702 L203.632247,6.53195711 L206.211565,17.9235995 C207.299826,22.7299363 210.646967,24.7609215 215.328464,23.7009277 L215.328464,23.7009277 Z M227.859226,21.7139622 L234.302967,20.8916349 L234.059915,18.987081 L231.964905,19.2544386 L231.01295,11.7949359 C232.084824,10.3355067 233.343767,9.07802102 234.994381,8.8673756 C236.105371,8.72559502 236.852317,9.01738658 237.310859,9.82987622 C237.526284,10.2540178 237.690377,10.7814887 237.783547,11.5115677 L238.662587,18.3997043 L236.504092,18.6751637 L236.747145,20.5797176 L243.190885,19.7573903 L242.947833,17.8528364 L240.852823,18.120194 L239.892766,10.5972062 C241.024075,9.09793262 242.263428,7.93972555 243.882299,7.733131 C244.961546,7.5954013 245.708493,7.88719286 246.167035,8.6996825 C246.38246,9.12382404 246.546552,9.65129502 246.639723,10.381374 L247.518762,17.2695106 L245.423753,17.5368682 L245.666805,19.4414221 L252.110546,18.6190948 L251.867493,16.7145409 L249.708999,16.9900003 L248.777298,9.68921039 C248.651721,8.70519088 248.379584,7.83665343 247.968988,7.14708318 C247.207895,5.98608975 245.971993,5.4018422 244.035696,5.64894549 C242.258113,5.87579441 240.662154,7.27306736 239.392387,8.95130809 C239.248549,8.58254993 239.077019,8.24958521 238.846055,7.9564648 C238.113318,7.01766933 236.957104,6.5522903 235.274748,6.7669866 C233.306709,7.01814076 231.695212,8.54643484 230.707077,10.1564751 L230.387058,7.64881252 L226.133554,8.19162958 L226.380658,10.127926 L228.539152,9.85246663 L229.774668,19.5339489 L227.616174,19.8094083 L227.859226,21.7139622 Z M259.014032,20.1435672 C260.869788,20.1134496 262.615016,19.1890077 263.717214,18.0829766 L263.745254,19.810749 L268.000694,19.7416862 L267.969538,17.821939 L265.761829,17.8577686 L265.641358,10.4347461 C265.622664,9.28289779 265.28609,8.26422531 264.56972,7.50775036 C263.657741,6.53042053 262.176068,5.94638698 260.160334,5.97910096 C256.896764,6.03206646 255.130963,7.66093488 255.156407,9.22872843 C255.169908,10.0606189 255.756218,10.6911878 256.588108,10.6776867 C257.451994,10.6636665 258.018052,10.0463997 258.005071,9.24650501 C258.000397,8.95854293 257.899737,8.67213866 257.800114,8.44972596 C258.243382,8.15449411 258.814633,7.85718518 259.902489,7.83953001 C261.278308,7.81720142 262.276928,8.21704929 262.895753,8.87909469 C263.287491,9.35280025 263.522366,10.0210769 263.534829,10.7889758 L263.565466,12.6767272 C262.857404,12.4321848 261.091405,12.0767952 259.619599,12.1006816 C256.579999,12.1500122 254.398772,13.8176269 254.439275,16.3132983 C254.477182,18.6489907 256.390378,20.1861473 259.014032,20.1435672 L259.014032,20.1435672 Z M259.560877,18.3424563 C257.705122,18.372574 256.697674,17.4287977 256.676384,16.1169705 C256.653536,14.7091559 257.724776,13.6676355 259.90049,13.6323252 C261.212317,13.6110351 262.560294,13.8451921 263.588833,14.1165376 L263.625701,16.3882384 C262.586976,17.4612353 261.192662,18.3159736 259.560877,18.3424563 L259.560877,18.3424563 Z M270.111375,20.303521 L276.599651,20.6201949 L276.69325,18.7024777 L274.583761,18.5995197 L274.950354,11.0884605 C276.260829,9.83885924 277.720194,8.82079151 279.382215,8.90190996 C280.500884,8.95650892 281.185327,9.37437171 281.494789,10.2545041 C281.632759,10.7097713 281.702126,11.2578045 281.666246,11.9929294 L281.327733,18.9286734 L279.15432,18.8225954 L279.060722,20.7403126 L285.548998,21.0569866 L285.642597,19.1392694 L283.533108,19.0363113 L283.902821,11.4613283 C285.278779,10.182885 286.701503,9.25914316 288.331562,9.33870165 C289.418269,9.39174064 290.102712,9.80960343 290.412174,10.6897359 C290.550144,11.1450031 290.619511,11.6930362 290.583632,12.4281611 L290.245118,19.3639051 L288.135629,19.2609471 L288.042031,21.1786643 L294.530307,21.4953383 L294.623906,19.577621 L292.450493,19.4715431 L292.809286,12.1202937 C292.857645,11.1294731 292.741514,10.2267385 292.457774,9.47601391 C291.911336,8.19985827 290.796585,7.4085744 288.846906,7.31341621 C287.057036,7.22605788 285.24141,8.3228518 283.697841,9.753305 C283.620675,9.36508164 283.509987,9.00726027 283.333815,8.67828091 C282.776457,7.62585895 281.71939,6.96554284 280.025406,6.88286441 C278.043765,6.78614625 276.189937,8.00922802 274.935586,9.421759 L275.058824,6.89676465 L270.775922,6.68772862 L270.680764,8.63740781 L272.854177,8.74348579 L272.378386,18.4918817 L270.204973,18.3858037 L270.111375,20.303521 Z M302.395784,6.82028593 C303.31192,6.96820127 304.260796,6.31104265 304.413812,5.36331582 C304.566828,4.41558899 303.90967,3.46671252 302.993534,3.31879719 C302.045807,3.16578132 301.09183,3.85453083 300.938814,4.80225766 C300.785798,5.74998449 301.448057,6.66727007 302.395784,6.82028593 L302.395784,6.82028593 Z M296.602684,23.2266631 L303.331545,24.3130757 L303.637577,22.4176221 L301.363032,22.050384 L303.229826,10.4881167 L298.77551,9.76894212 L298.464377,11.6959867 L300.738922,12.0632248 L299.183261,21.6984475 L296.908716,21.3312095 L296.602684,23.2266631 Z" id="Umami" fill="#233368"></path>
                    <path d="M21.9760695,220.861149 C22.4465716,216.921143 20.5396822,213.728512 16.8538696,213.288365 C13.3269283,212.86719 11.7092513,215.348883 9.96494087,218.621138 C8.63323217,221.13698 7.476528,222.996947 5.25233074,222.731341 C3.34587594,222.503679 2.16171316,220.815357 2.46146849,218.305191 C2.61703771,217.002447 3.21223274,215.52661 3.91601635,215.030561 C4.17542397,215.28713 4.56192858,215.558877 5.07031652,215.619587 C5.92822118,215.722035 6.7704849,215.145841 6.89190478,214.129065 C6.99814717,213.239386 6.4219529,212.397122 5.24630578,212.25673 C3.08565701,211.998713 0.781749051,214.559596 0.371956954,217.991214 C-0.0947507113,221.899447 1.95299384,224.72217 5.16219274,225.105401 C8.75268261,225.534165 10.4135169,222.960944 12.2085734,219.533612 C13.4146044,217.26058 14.6030829,215.404408 16.7637316,215.662425 C19.0197031,215.931826 20.2484426,217.786607 19.9145379,220.582741 C19.6868756,222.489196 18.8972407,223.974041 18.1147311,224.589598 C17.7675895,224.258098 17.3493107,223.982557 16.7773742,223.914258 C15.9512438,223.815604 15.1407544,224.395593 15.0231288,225.380595 C14.9092977,226.333822 15.6163833,227.159489 16.8238047,227.303675 C18.8573565,227.546515 21.4865957,224.960027 21.9760695,220.861149 L21.9760695,220.861149 Z M24.7061032,206.37028 C25.0617924,204.548681 24.5196914,202.649591 23.6664978,201.341843 L25.3624689,201.673002 L26.1781009,197.495888 L24.2936887,197.127934 L23.8705412,199.295008 L16.5841471,197.872252 C15.4534997,197.651479 14.3871541,197.769305 13.4984726,198.313075 C12.3531476,199.002358 11.4743187,200.330555 11.0879667,202.309188 C10.4624443,205.512688 11.6893639,207.578102 13.2283006,207.878598 C14.0448792,208.038045 14.7834029,207.595373 14.9428498,206.778794 C15.1084293,205.930808 14.622085,205.248966 13.8369132,205.095651 C13.5542514,205.040458 13.2531918,205.079486 13.014946,205.130778 C12.8181402,204.635889 12.6458646,204.015372 12.8543721,202.947539 C13.1180727,201.597043 13.7164717,200.703154 14.4925349,200.235207 C15.0372288,199.950313 15.7397011,199.859249 16.493466,200.006431 L18.3464714,200.368253 C17.9602999,201.010143 17.246126,202.66393 16.9640277,204.108646 C16.3814333,207.092299 17.5600363,209.572134 20.0097722,210.050475 C22.3024738,210.498153 24.2032323,208.945643 24.7061032,206.37028 L24.7061032,206.37028 Z M23.0577047,205.461532 C22.7020155,207.283131 21.5696996,208.072767 20.2820179,207.821331 C18.9001156,207.551498 18.1036032,206.287422 18.520618,204.151755 C18.7720535,202.864073 19.2808765,201.594045 19.7597806,200.644218 L21.9896685,201.079631 C22.8237204,202.318433 23.3704659,203.859782 23.0577047,205.461532 L23.0577047,205.461532 Z M27.115788,195.794415 L28.8642203,189.206483 L27.0084649,188.713967 L26.4174456,190.940874 L5.63298584,185.424693 L4.47557294,189.785718 L6.33132827,190.278234 L6.92234763,188.051328 L25.851052,193.074992 L25.2600327,195.301899 L27.115788,195.794415 Z M31.400463,182.234763 C31.7656871,181.0414 31.6794402,180.011052 31.5182755,179.225496 L29.5830205,178.332033 C29.7866539,179.197516 29.8635362,180.258464 29.6294181,181.02344 C29.3859353,181.819015 29.0219064,182.243047 28.4880028,182.347369 C28.1657878,182.416081 27.8410678,182.383632 27.4126811,182.252526 L19.6405219,179.873887 L20.8673005,175.865411 L19.0007584,175.294163 L17.7739797,179.302639 L13.796103,178.085225 L13.9854763,180.418808 L17.1371786,181.383374 L16.3973655,183.800699 L18.2639077,184.371947 L19.0037208,181.954622 L27.0818705,184.426909 C27.7856486,184.642298 28.4257238,184.737795 28.9902265,184.642838 C30.1591954,184.43169 30.9790505,183.611721 31.400463,182.234763 L31.400463,182.234763 Z M38.7663821,173.141952 C38.3633288,172.556819 37.8785133,172.010506 37.3032617,171.431986 L26.4383218,160.734945 L27.0609914,158.986512 L25.2221221,158.331635 L23.117928,164.240134 L24.8965066,164.873539 L25.6480044,162.763361 L32.5980903,169.382677 C32.608826,169.352532 23.0499689,170.058548 23.0499689,170.058548 L23.7692597,168.038806 L21.9906812,167.4054 L19.8542801,173.404335 L21.6931494,174.059212 L22.3265548,172.280633 L34.3238453,171.118237 L35.6424237,172.471009 C36.237085,173.09041 36.7627816,173.617314 37.1076057,174.079803 C37.7778443,174.9639 37.9979636,175.585791 38.007065,176.132531 C37.3698883,176.109426 36.6662359,176.368364 36.4085795,177.091854 C36.150923,177.815343 36.4292714,178.559877 37.2733426,178.860476 C38.2681408,179.214754 39.3264982,178.436731 39.7559256,177.230915 C40.21756,175.934663 39.8095286,174.600446 38.7663821,173.141952 L38.7663821,173.141952 Z" id="Salty" fill="#233368"></path>
                </g>
                <g id="Group" transform="translate(67.000000, 68.000000)">
                    <path d="M269.000053,519.162215 C407.681513,519.162215 520.105049,406.738679 520.105049,268.057219 C520.105049,129.37576 407.681513,16.9522236 269.000053,16.9522236 C130.318593,16.9522236 17.8950571,129.37576 17.8950571,268.057219 C17.8950571,406.738679 130.318593,519.162215 269.000053,519.162215 Z" id="Oval-63" transform="translate(269.000053, 268.057219) rotate(4.000000) translate(-269.000053, -268.057219) "></path>
                    <path d="M401.95001,481.123409 L409.46641,476.485741 C413.415243,474.049286 414.398571,470.584891 412.651044,467.752625 C411.222776,465.437792 409.010522,464.960319 406.227517,465.812629 C407.791414,464.020472 408.235281,461.753752 406.907833,459.602318 C405.429156,457.205785 402.331541,456.146556 398.083141,458.767847 L390.893542,463.203877 L392.002549,465.001276 L394.290149,463.589812 L403.128603,477.914545 L400.841003,479.326009 L401.95001,481.123409 Z M405.160672,476.698346 L401.127918,470.162346 L403.824018,468.498835 C406.765218,466.684095 409.241116,466.735691 410.568564,468.887124 C411.744785,470.793457 411.070305,473.052064 408.428672,474.681968 L405.160672,476.698346 Z M400.102926,468.501113 L396.288613,462.319146 L399.120879,460.57162 C401.762512,458.941715 403.867574,459.184518 405.010188,461.036384 C406.186408,462.942718 405.576826,465.123681 402.744559,466.871208 L400.102926,468.501113 Z M410.273278,454.651228 C411.023251,454.104672 411.224472,452.968127 410.659069,452.192293 C410.093666,451.416458 408.957121,451.215237 408.207147,451.761794 C407.431313,452.327197 407.248939,453.489603 407.814342,454.265437 C408.379745,455.041272 409.497443,455.216631 410.273278,454.651228 L410.273278,454.651228 Z M417.847769,470.315082 L423.356195,466.300719 L422.225388,464.74905 L420.363385,466.106018 L413.465467,456.640836 L409.819044,459.298231 L410.968697,460.875761 L412.8307,459.518793 L418.578966,467.406445 L416.716963,468.763412 L417.847769,470.315082 Z M429.328322,461.761478 C430.309145,460.989799 430.826185,460.094407 431.14203,459.357309 L430.062454,457.519374 C429.735884,458.346344 429.193695,459.261522 428.564962,459.756189 C427.91108,460.270642 427.370184,460.411183 426.87219,460.192237 C426.568363,460.064826 426.320198,459.852906 426.043185,459.500816 L421.017374,453.112889 L424.311934,450.520837 L423.104948,448.986728 L419.810388,451.57878 L417.238122,448.309369 L416.062208,450.333893 L418.100234,452.924273 L416.113438,454.487419 L417.320424,456.021527 L419.30722,454.458381 L424.530898,461.097801 C424.985991,461.676236 425.457172,462.119862 425.974953,462.363958 C427.055451,462.857512 428.196602,462.651878 429.328322,461.761478 L429.328322,461.761478 Z M437.391576,454.788078 C438.338981,453.975719 438.817798,453.059319 439.102275,452.309556 L437.946146,450.518787 C437.654744,451.358794 437.151634,452.296024 436.544323,452.816767 C435.912719,453.35834 435.378232,453.521568 434.871447,453.323819 C434.562517,453.209336 434.305635,453.00807 434.014019,452.667976 L428.723272,446.497694 L431.905583,443.769002 L430.63497,442.287162 L427.45266,445.015855 L424.744797,441.857837 L423.655313,443.930153 L425.800773,446.432275 L423.88167,448.077823 L425.152282,449.559662 L427.071386,447.914115 L432.57043,454.327321 C433.049513,454.886047 433.538985,455.309407 434.0666,455.531449 C435.166952,455.978994 436.298415,455.725415 437.391576,454.788078 L437.391576,454.788078 Z M446.414289,437.504823 C446.244262,437.182006 445.983779,436.856078 445.634395,436.481812 C443.319727,434.002302 439.65463,433.26498 436.683896,436.038215 C433.642986,438.876959 434.066044,443.034769 436.64275,445.79498 C439.481494,448.835889 443.575416,448.954014 446.756675,445.984251 C448.019822,444.80508 449.00065,443.27659 449.440295,441.684211 L448.1176,439.985954 C447.581278,441.756135 446.968495,443.116154 445.635173,444.360834 C443.483145,446.369791 441.028386,446.64764 438.74184,444.667193 L446.414289,437.504823 Z M437.878682,437.505666 C439.773403,435.73691 441.91474,436.014304 443.669435,437.659493 L437.564224,443.358818 C436.029384,441.245732 436.358227,438.925038 437.878682,437.505666 L437.878682,437.505666 Z M447.948855,424.087948 C446.936485,425.15654 446.882668,427.353655 447.526989,429.418729 L445.273652,427.283948 L442.324573,430.396806 L443.74162,431.739296 L445.238167,430.159638 L452.323402,436.872092 L450.826855,438.451751 L452.220672,439.772234 L456.996418,434.731263 L455.602602,433.41078 L453.841958,435.269203 L448.893908,430.581489 C448.357175,429.147307 448.332739,427.40502 448.827924,426.463579 C449.423355,426.71912 450.214415,426.675111 450.786624,426.071124 C451.380841,425.443907 451.285484,424.427878 450.658266,423.83366 C449.984588,423.195427 448.873193,423.112276 447.948855,424.087948 L447.948855,424.087948 Z" id="Bitter" fill="#233368"></path>
                </g>
                <g id="Group">
                    <path d="M336.000053,587.162215 C474.681513,587.162215 587.105049,474.738679 587.105049,336.057219 C587.105049,197.37576 474.681513,84.9522236 336.000053,84.9522236 C197.318593,84.9522236 84.8950571,197.37576 84.8950571,336.057219 C84.8950571,474.738679 197.318593,587.162215 336.000053,587.162215 Z" id="Oval-63" transform="translate(336.000053, 336.057219) rotate(64.000000) translate(-336.000053, -336.057219) "></path>
                    <path d="M186.799502,566.663835 C190.488079,565.201158 192.387264,562.003938 191.018953,558.553334 C189.70962,555.251463 186.757026,555.010903 183.048972,555.035491 C180.20254,555.062651 178.016174,554.931339 177.190469,552.849078 C176.482721,551.064283 177.403339,549.218982 179.753319,548.287114 C180.972929,547.803487 182.55411,547.623995 183.325465,548.006602 C183.223401,548.356892 183.16852,548.826168 183.357252,549.302114 C183.675739,550.105272 184.583516,550.571478 185.535407,550.194013 C186.368311,549.863731 186.834518,548.955954 186.398073,547.85533 C185.59596,545.832562 182.246921,545.026303 179.03429,546.300248 C175.37546,547.75113 173.868621,550.896041 175.059996,553.900446 C176.39292,557.26181 179.44655,557.496729 183.315133,557.442908 C185.888205,557.420875 188.086366,557.581934 188.88848,559.604701 C189.725981,561.716709 188.680222,563.680482 186.062523,564.718512 C184.277728,565.426259 182.596025,565.439067 181.682093,565.04415 C181.808263,564.581029 181.851348,564.082006 181.639023,563.546567 C181.332333,562.773156 180.436352,562.336696 179.514207,562.702366 C178.62181,563.056239 178.232533,564.071207 178.680773,565.201577 C179.435703,567.105359 182.962193,568.185492 186.799502,566.663835 L186.799502,566.663835 Z M202.303852,559.110528 C206.111228,557.281303 207.234859,553.191302 205.558069,549.701207 C203.88128,546.211112 199.986096,544.532362 196.17872,546.361587 C192.371344,548.190811 191.261571,552.309656 192.924503,555.770907 C194.61515,559.289846 198.467632,560.95361 202.303852,559.110528 L202.303852,559.110528 Z M201.472386,557.379902 C198.962979,558.585528 196.317741,557.513305 195.001254,554.773148 C193.698624,552.061835 194.500779,549.297837 197.010186,548.092212 C199.519593,546.886587 202.178689,547.987653 203.481318,550.698966 C204.797806,553.439123 203.981793,556.174277 201.472386,557.379902 L201.472386,557.379902 Z M216.003229,551.35586 C217.70191,550.394201 218.686453,548.365948 219.059392,546.426532 L220.304819,548.626463 L224.064194,546.498202 L223.118301,544.827369 L221.224689,545.899382 L215.454737,535.707297 L211.583973,537.898617 L212.545631,539.597298 L214.494937,538.493755 L218.183923,545.010006 C217.716395,546.782338 216.943581,548.470094 215.467678,549.305634 C214.493025,549.857405 213.706973,549.897913 212.950836,549.406676 C212.50735,549.142934 212.096428,548.676897 211.71807,548.008563 L207.351194,540.294881 L203.536124,542.454672 L204.497783,544.153353 L206.391394,543.08134 L210.001555,549.458355 C210.537562,550.405161 211.205439,551.130223 211.930046,551.565766 C213.082374,552.237203 214.443784,552.238694 216.003229,551.35586 L216.003229,551.35586 Z M225.066852,528.504705 C223.840123,529.318289 223.293637,531.447036 223.457102,533.604108 L221.741501,531.017309 L218.167985,533.387314 L219.246868,535.014064 L221.060294,533.811375 L226.454709,541.945124 L224.641283,543.147814 L225.702479,544.747895 L231.489442,540.909902 L230.428246,539.30982 L228.294803,540.724748 L224.527556,535.044458 C224.32706,533.526313 224.695023,531.823151 225.38922,531.017167 C225.911942,531.400053 226.692639,531.535051 227.386008,531.075199 C228.106045,530.597661 228.241595,529.586209 227.764056,528.866172 C227.251145,528.092799 226.18691,527.761868 225.066852,528.504705 L225.066852,528.504705 Z" id="Sour" fill="#233368" transform="translate(204.701161, 547.736134) rotate(60.000000) translate(-204.701161, -547.736134) "></path>
                </g>
            </g>
        </g>
    </g>
</svg>