<?xml version="1.0" encoding="UTF-8" standalone="no"?>
<svg width="73px" height="66px" viewBox="0 0 73 66" version="1.1" xmlns="http://www.w3.org/2000/svg" xmlns:xlink="http://www.w3.org/1999/xlink">
    <!-- Generator: Sketch 3.6.1 (26313) - http://www.bohemiancoding.com/sketch -->
    <title>Slice 1</title>
    <desc>Created with Sketch.</desc>
    <defs></defs>
    <g id="Page-1" stroke="none" stroke-width="1" fill="none" fill-rule="evenodd">
        <g id="Group-3" transform="translate(2.000000, 2.000000)">
            <g id="Group-2" transform="translate(27.626685, 27.463797) rotate(-45.000000) translate(-27.626685, -27.463797) translate(18.626685, -2.036203)" stroke="#233368" stroke-width="2">
                <path d="M8.67777801,58.5995804 C4.96566269,58.5890611 1.775,56.1979047 1.775,51.4750051 C1.775,46.7416718 5.91666667,36.4861111 5.91666667,27.6111111 C5.91666667,18.7361111 2.59348099e-13,20.7083385 2.59348099e-13,13.6083385 C2.60004981e-13,6.50833848 3.74722222,5.14854389e-06 3.74722222,5.14854389e-06 L8.69015503,-6.46516243e-09 L13.6913309,5.14854387e-06 C13.6913309,5.14854387e-06 17.4800119,6.50833848 17.4800119,13.6083385 C17.4800119,20.7083385 11.8831639,18.9333385 11.8831639,27.8083385 C11.8831639,36.6833385 15.6635531,46.7416718 15.6635531,51.4750051 C15.6635531,56.1994504 13.0595611,58.590626 8.7023879,58.59959 C8.7023879,58.5996068 8.7023879,58.5996153 8.7023879,58.5996153 C8.69828501,58.5996153 8.69418274,58.5996124 8.69008111,58.5996066 C8.68598594,58.5996132 8.68188275,58.5996153 8.67777801,58.5996153 C8.67777801,58.5996153 8.67777801,58.5996037 8.67777801,58.5995804 Z" id="Combined-Shape"></path>
                <path d="M9,-2.30926389e-13 L9,9.46666667" id="Path-44"></path>
                <path d="M5,9.23705556e-14 L5,9.46666667" id="Path-44"></path>
                <path d="M12,9.05941988e-14 L12,9.46666667" id="Path-44"></path>
            </g>
            <g id="Group-2-Copy" transform="translate(39.384554, 32.377814) rotate(-315.000000) translate(-39.384554, -32.377814) translate(26.884554, 2.877814)">
                <path d="M10.8333334,17.7500008 C10.749063,26.2907886 6.93871946,26.7262148 6.93871946,35.500001 C6.93871946,44.375001 8.86111118,46.5444455 8.86111118,51.2777788 C8.86111118,56.0111121 8.10530974,58.5996148 3.73333357,58.5996153 C-1.00000019,57.1944455 0.972222172,44.5532516 0.972222242,29.5833325 C0.97222231,15.2680864 0.972222229,21.6944437 0.972222229,5.91666671 C0.972222229,-1.54481556e-07 3.15038108,-1.81076939 6.93871946,3.9444443 C10.8333334,9.86111099 10.8343055,17.6514749 10.8333334,17.7500008 Z" id="Combined-Shape" stroke="#233368" stroke-width="2" fill="#FFFFFF"></path>
                <path id="Path-48" stroke="#979797" d=""></path>
            </g>
        </g>
    </g>
</svg>