<?xml version="1.0" encoding="UTF-8" standalone="no"?>
<svg width="14px" height="38px" viewBox="0 0 14 38" version="1.1" xmlns="http://www.w3.org/2000/svg" xmlns:xlink="http://www.w3.org/1999/xlink">
    <!-- Generator: Sketch 3.6.1 (26313) - http://www.bohemiancoding.com/sketch -->
    <title>Slice 1</title>
    <desc>Created with Sketch.</desc>
    <defs></defs>
    <g id="Page-1" stroke="none" stroke-width="1" fill="none" fill-rule="evenodd">
        <path d="M8.689,4.822 C9.805,4.822 10.735,3.83 10.735,2.714 C10.735,1.598 9.805,0.606 8.689,0.606 C7.573,0.606 6.643,1.598 6.643,2.714 C6.643,3.83 7.573,4.822 8.689,4.822 L8.689,4.822 Z M4.907,37.372 C7.449,37.372 9.061,35.636 10.425,31.792 L8.937,31.358 C7.697,34.458 6.643,35.574 5.155,35.574 C3.853,35.574 2.985,34.706 2.985,33.404 C2.985,32.66 3.233,31.482 3.605,30.18 L8.937,11.208 L1.125,11.208 L0.691,13.254 L6.085,13.254 L1.311,29.87 C0.939,31.234 0.691,32.474 0.691,33.342 C0.691,35.822 2.365,37.372 4.907,37.372 L4.907,37.372 Z" id="i" fill="#2C2E52"></path>
    </g>
</svg>