<?xml version="1.0" encoding="UTF-8" standalone="no"?>
<svg width="56px" height="62px" viewBox="0 0 56 62" version="1.1" xmlns="http://www.w3.org/2000/svg" xmlns:xlink="http://www.w3.org/1999/xlink">
    <!-- Generator: Sketch 3.6.1 (26313) - http://www.bohemiancoding.com/sketch -->
    <title>Artboard 1 Copy 2</title>
    <desc>Created with Sketch.</desc>
    <defs></defs>
    <g id="Page-1" stroke="none" stroke-width="1" fill="none" fill-rule="evenodd">
        <g id="Artboard-1-Copy-2" fill="#939597">
            <g id="Page-1" transform="translate(11.000000, 12.000000)">
                <path d="M2.6436,4.5518 L8.6766,4.5518 L9.5266,14.6578 L0.8526,14.6578 L2.6436,4.5518 Z M3.4656,2.6338 C3.7166,2.6338 3.9206,2.8378 3.9206,3.0888 L3.9206,3.7858 L3.0106,3.7858 L3.0106,3.0888 C3.0106,2.8378 3.2146,2.6338 3.4656,2.6338 L3.4656,2.6338 Z M5.6756,1.2998 C5.9266,1.2998 6.1306,1.5038 6.1306,1.7548 L6.1306,3.7858 L5.2206,3.7858 L5.2206,1.7548 C5.2206,1.5038 5.4246,1.2998 5.6756,1.2998 L5.6756,1.2998 Z M7.8476,0.7678 C8.0986,0.7678 8.3036,0.9708 8.3036,1.2218 L8.3036,3.7858 L7.3926,3.7858 L7.3926,1.2218 C7.3926,0.9708 7.5966,0.7678 7.8476,0.7678 L7.8476,0.7678 Z M11.1936,7.2618 L9.7266,7.8908 L9.6226,6.6578 L11.1936,7.2618 Z M0.3956,15.4248 L9.9436,15.4248 C10.0506,15.4248 10.1536,15.3798 10.2256,15.3008 C10.2986,15.2218 10.3346,15.1168 10.3256,15.0098 L9.7936,8.6958 L12.3616,7.5948 C12.5056,7.5328 12.5976,7.3928 12.5946,7.2368 C12.5916,7.0798 12.4946,6.9418 12.3486,6.8848 L9.5516,5.8098 L9.4106,4.1368 C9.3956,3.9518 9.2496,3.8138 9.0696,3.7928 L9.0696,1.2218 C9.0696,0.5478 8.5206,-0.0002 7.8476,-0.0002 C7.2286,-0.0002 6.7366,0.4698 6.6576,1.0678 C6.4356,0.7528 6.0886,0.5338 5.6756,0.5338 C5.0016,0.5338 4.4546,1.0818 4.4546,1.7548 L4.4546,2.4108 C4.2336,2.0908 3.8826,1.8678 3.4656,1.8678 C2.7916,1.8678 2.2446,2.4148 2.2446,3.0888 L2.2446,3.8148 C2.0976,3.8488 1.9726,3.9478 1.9456,4.1028 L0.0186,14.9758 C-0.0014,15.0858 0.0296,15.2008 0.1026,15.2878 C0.1756,15.3748 0.2826,15.4248 0.3956,15.4248 L0.3956,15.4248 Z" id="Fill-1"></path>
                <path d="M6.7427,7.1163 C6.4057,7.1163 6.1327,7.3883 6.1327,7.7253 C6.1327,8.0613 6.4057,8.3353 6.7427,8.3353 C7.0797,8.3353 7.3527,8.0613 7.3527,7.7253 C7.3527,7.3883 7.0797,7.1163 6.7427,7.1163" id="Fill-3"></path>
                <g id="Group-7" transform="translate(0.000000, 10.222700)">
                    <path d="M17.9849,24.9189 C17.9569,24.9119 17.9299,24.9009 17.8999,24.9009 C17.8389,24.9009 17.7839,24.9189 17.7339,24.9419 C17.0799,24.9269 16.4949,24.5969 16.1239,24.0739 C16.5329,24.0969 16.9379,24.1269 17.3579,24.1269 C18.0829,24.1269 18.7879,24.0839 19.4789,24.0149 C19.1409,24.5239 18.5979,24.8559 17.9849,24.9189 M34.7379,5.8679 C34.6589,3.6379 34.5409,2.1379 34.5399,2.1369 C34.5399,1.3139 33.8709,0.6439 33.0479,0.6439 C32.6129,0.6439 32.2209,0.8339 31.9499,1.1369 C31.6759,0.8339 31.2809,0.6439 30.8419,0.6439 C30.3989,0.6439 29.9999,0.8379 29.7259,1.1459 C29.4529,0.8379 29.0539,0.6439 28.6099,0.6439 C27.7869,0.6439 27.1179,1.3139 27.1179,2.1369 L27.1179,2.3099 C27.1179,3.1979 26.8679,3.8829 26.3749,4.3459 C25.5409,5.1269 24.2609,5.0539 24.2239,5.0519 L11.4979,5.0519 C11.2859,5.0519 11.1139,5.2229 11.1139,5.4349 C11.1139,5.6469 11.2859,5.8169 11.4979,5.8169 L24.1969,5.8159 C24.2609,5.8219 25.8119,5.9179 26.8929,4.9099 C27.5509,4.2959 27.8839,3.4219 27.8839,2.3099 L27.8839,2.1369 C27.8839,1.7349 28.2099,1.4109 28.6099,1.4109 C29.0109,1.4109 29.3369,1.7349 29.3369,2.1369 C29.3369,2.3479 29.5209,2.5199 29.7329,2.5199 C29.9449,2.5199 30.1159,2.3479 30.1159,2.1369 C30.1159,1.7349 30.4419,1.4109 30.8419,1.4109 C31.2429,1.4109 31.5679,1.7349 31.5679,2.1369 C31.5679,2.3479 31.7399,2.5199 31.9519,2.5199 C32.1629,2.5199 32.3349,2.3479 32.3349,2.1369 C32.3349,1.7299 32.6479,1.4109 33.0479,1.4109 C33.4479,1.4109 33.7739,1.7349 33.7759,2.1839 C33.7769,2.1989 33.8939,3.6829 33.9729,5.8949 C33.9749,5.9609 33.9989,6.0199 34.0299,6.0739 C33.9829,6.1379 33.9489,6.2129 33.9489,6.2989 C33.9489,16.5039 27.2809,23.3599 17.3579,23.3599 C7.4339,23.3599 0.7659,16.5039 0.7659,6.2989 C0.7659,6.0869 0.5949,5.9159 0.3829,5.9159 C0.1719,5.9159 -0.0001,6.0869 -0.0001,6.2989 C-0.0001,16.2019 6.0219,23.0779 15.1959,24.0099 C15.6079,24.9639 16.4999,25.6009 17.5169,25.6969 L17.5169,27.3519 L15.7009,26.8879 C15.4949,26.8339 15.2869,26.9589 15.2349,27.1649 C15.1819,27.3699 15.3059,27.5779 15.5109,27.6309 L16.6869,27.9309 L15.8809,28.2629 C15.6849,28.3429 15.5919,28.5669 15.6729,28.7629 C15.7339,28.9109 15.8769,28.9999 16.0269,28.9999 C16.0759,28.9999 16.1259,28.9909 16.1729,28.9709 L17.9589,28.2339 L19.9249,28.4139 C19.9369,28.4139 19.9479,28.4149 19.9599,28.4149 C20.1559,28.4149 20.3229,28.2649 20.3409,28.0659 C20.3599,27.8559 20.2049,27.6689 19.9939,27.6489 L18.2829,27.4949 L18.2829,25.6669 C19.2419,25.4909 20.0659,24.8229 20.4189,23.8879 C29.0819,22.6069 34.7149,15.8729 34.7149,6.2989 C34.7149,6.2279 34.6909,6.1659 34.6569,6.1079 C34.7079,6.0409 34.7419,5.9589 34.7379,5.8679" id="Fill-5"></path>
                </g>
                <path d="M25.3618,20.6631 C25.5778,20.6631 25.7708,20.7451 25.9048,20.8941 C26.0398,21.0441 26.1008,21.2441 26.0788,21.4591 L25.4528,27.4041 C25.3998,27.9021 24.9358,28.3771 24.4398,28.4421 C24.0808,28.4891 15.7778,29.4521 12.7398,20.6631 L25.3618,20.6631 Z M23.5898,29.2471 C24.1688,29.2471 24.5208,29.2051 24.5388,29.2021 C25.3888,29.0911 26.1248,28.3361 26.2148,27.4841 L26.8408,21.5391 C26.8858,21.1051 26.7568,20.6941 26.4748,20.3821 C26.1938,20.0691 25.7978,19.8971 25.3618,19.8971 L12.2108,19.8971 C12.0898,19.8971 11.9748,19.9541 11.9028,20.0531 C11.8298,20.1501 11.8088,20.2771 11.8448,20.3931 C14.3508,28.4691 21.0898,29.2471 23.5898,29.2471 L23.5898,29.2471 Z" id="Fill-8"></path>
            </g>
        </g>
    </g>
</svg>