<?xml version="1.0" encoding="UTF-8" standalone="no"?>
<svg width="56px" height="62px" viewBox="0 0 56 62" version="1.1" xmlns="http://www.w3.org/2000/svg" xmlns:xlink="http://www.w3.org/1999/xlink">
    <!-- Generator: Sketch 3.6.1 (26313) - http://www.bohemiancoding.com/sketch -->
    <title>Artboard 1 Copy</title>
    <desc>Created with Sketch.</desc>
    <defs></defs>
    <g id="Page-1" stroke="none" stroke-width="1" fill="none" fill-rule="evenodd">
        <g id="Artboard-1-Copy" fill="#939597">
            <g id="Page-1" transform="translate(9.000000, 13.000000)">
                <path d="M14.2935,13.0322 C13.7775,13.0322 13.3575,12.6122 13.3575,12.0962 C13.3575,11.5802 13.7775,11.1602 14.2935,11.1602 C14.8095,11.1602 15.2295,11.5802 15.2295,12.0962 C15.2295,12.6122 14.8095,13.0322 14.2935,13.0322 M15.9965,12.0962 C15.9965,11.1572 15.2325,10.3942 14.2935,10.3942 C13.3555,10.3942 12.5915,11.1572 12.5915,12.0962 C12.5915,13.0352 13.3555,13.7992 14.2935,13.7992 C15.2325,13.7992 15.9965,13.0352 15.9965,12.0962" id="Fill-1"></path>
                <g id="Group-5" transform="translate(0.000000, 0.782200)">
                    <path d="M15.6821,34.8887 C15.5781,34.6707 15.6951,34.3177 15.9961,33.9397 L17.3431,32.2507 C18.0861,31.3207 19.6851,30.8047 20.8321,31.1227 L24.1591,32.0487 L24.1591,35.2347 L16.6191,35.2347 C16.1371,35.2347 15.7861,35.1057 15.6821,34.8887 L15.6821,34.8887 Z M18.0831,26.6977 C18.1981,26.4937 18.5551,26.3957 19.0331,26.4307 L19.4611,26.4607 C20.6931,26.5517 22.2841,27.3477 22.9341,28.1977 L24.1591,29.7997 L24.1591,31.2537 L21.0381,30.3837 C20.7731,30.3107 20.4881,30.2827 20.1991,30.2757 C20.1911,30.2627 20.1901,30.2467 20.1811,30.2357 L18.3461,27.6477 C18.0671,27.2537 17.9701,26.8997 18.0831,26.6977 L18.0831,26.6977 Z M28.8331,28.2457 C29.2631,29.3947 30.4761,31.5467 33.5491,31.5467 C33.6121,31.5467 33.6861,31.5327 33.7501,31.5307 C31.4731,33.7617 28.4081,35.1207 24.9261,35.2147 L24.9261,30.0417 C26.4521,29.9457 27.8241,29.2747 28.8331,28.2457 L28.8331,28.2457 Z M30.5611,24.0347 C30.5611,23.4877 30.4811,22.9577 30.3431,22.4517 C35.1001,21.7157 36.4341,17.9627 36.8001,15.8077 C37.5031,17.4757 37.8921,19.3067 37.8921,21.2277 C37.8921,24.9537 36.6311,28.2427 34.5241,30.7007 C30.5751,31.2797 29.5881,28.2747 29.4111,27.5597 C30.1311,26.5677 30.5611,25.3527 30.5611,24.0347 L30.5611,24.0347 Z M24.5401,18.0167 L24.4691,18.0167 C25.9481,16.3587 26.6921,14.5737 26.6661,12.6997 C26.6311,10.1287 25.1781,8.1177 24.4271,7.2467 C29.4921,7.4427 33.8781,10.3237 36.1771,14.5187 C36.1551,15.6407 35.7391,20.9327 30.0971,21.7197 C29.1871,19.5467 27.0401,18.0167 24.5401,18.0167 L24.5401,18.0167 Z M11.0091,19.8827 C10.7651,19.9237 10.5851,19.9407 10.4541,19.9447 C10.5101,19.9017 10.5781,19.8517 10.6631,19.7947 L12.3531,18.6717 C13.4581,18.8327 14.6371,18.8947 15.9071,18.8257 L17.3171,18.8187 L11.0091,19.8827 Z M6.4701,15.0347 L8.6541,15.0347 C8.8661,15.0347 9.0371,14.8637 9.0371,14.6527 C9.0371,14.4407 8.8661,14.2687 8.6541,14.2687 L5.8071,14.2687 C3.7531,11.6067 3.4731,8.3107 3.4391,7.2197 L14.2921,7.2197 L23.3821,7.2197 C23.4011,7.2627 23.4281,7.3017 23.4641,7.3357 C23.4881,7.3587 25.8571,9.6367 25.9001,12.7097 C25.9261,14.5617 25.1031,16.3347 23.4561,17.9837 C23.4451,17.9927 23.4491,18.0107 23.4401,18.0217 L15.8851,18.0597 C11.8901,18.2777 8.7781,17.3167 6.6331,15.2087 C6.5761,15.1527 6.5261,15.0917 6.4701,15.0347 L6.4701,15.0347 Z M35.0601,31.1547 C37.3001,28.5477 38.6591,25.0877 38.6591,21.2277 C38.6591,18.7397 38.0351,16.3977 36.9451,14.3377 C36.9441,14.3187 36.9451,14.2867 36.9451,14.2847 C36.9401,14.1397 36.8551,14.0257 36.7351,13.9617 C34.1931,9.4857 29.3901,6.4527 23.8861,6.4527 L14.2921,6.4527 L3.0541,6.4527 C2.8481,6.4527 2.6791,6.6167 2.6711,6.8217 C2.6641,7.0107 2.5541,10.8837 4.8141,14.2077 C2.5361,13.9097 0.7661,11.9777 0.7661,9.6197 C0.7661,7.0567 2.8521,4.9717 5.4151,4.9717 L19.5351,4.9717 C19.5821,4.9717 19.6281,4.9587 19.6701,4.9437 C19.7121,4.9587 19.7571,4.9717 19.8051,4.9717 C21.3791,4.9717 22.6601,3.6907 22.6601,2.1167 C22.6601,1.4767 22.4531,0.8707 22.0611,0.3667 C21.9321,0.1997 21.6921,0.1687 21.5241,0.2987 C21.3571,0.4287 21.3271,0.6687 21.4561,0.8357 C21.7431,1.2047 21.8931,1.6477 21.8931,2.1167 C21.8931,3.2677 20.9571,4.2037 19.8051,4.2037 C19.7571,4.2037 19.7121,4.2147 19.6701,4.2327 C19.6281,4.2147 19.5821,4.2037 19.5351,4.2037 L5.4151,4.2037 C2.4301,4.2037 0.0001,6.6337 0.0001,9.6197 C0.0001,12.6067 2.4301,15.0347 5.4151,15.0347 L5.4331,15.0347 C5.6381,15.2797 5.8551,15.5187 6.0911,15.7497 C7.4651,17.1027 9.2031,18.0047 11.2651,18.4747 L10.2391,19.1567 C9.9831,19.3257 9.3061,19.7767 9.5141,20.3017 C9.6401,20.6187 9.9881,20.7137 10.3901,20.7137 C10.6321,20.7137 10.8921,20.6807 11.1371,20.6397 L21.8481,18.8297 C21.8811,18.8247 21.9091,18.8087 21.9381,18.7947 L24.5421,18.7827 C27.4381,18.7827 29.7951,21.1397 29.7951,24.0347 C29.7951,26.8707 27.5311,29.1737 24.7181,29.2707 L23.5431,27.7327 C22.7531,26.6987 20.9851,25.8057 19.5171,25.6967 L19.0891,25.6647 C18.0011,25.5827 17.5741,26.0407 17.4161,26.3207 C17.2591,26.5997 17.0891,27.2007 17.7211,28.0897 L19.3151,30.3377 C18.3101,30.5227 17.3291,31.0387 16.7441,31.7737 L15.3971,33.4617 C14.7181,34.3137 14.8511,34.9297 14.9921,35.2207 C15.1321,35.5127 15.5301,35.9997 16.6191,35.9997 L24.5421,35.9997 C28.6451,35.9997 32.2771,34.2467 34.8341,31.4147 C34.9481,31.3667 35.0331,31.2727 35.0601,31.1547 L35.0601,31.1547 Z" id="Fill-3"></path>
                </g>
            </g>
        </g>
    </g>
</svg>