<?xml version="1.0" encoding="UTF-8" standalone="no"?>
<svg width="83px" height="79px" viewBox="0 0 83 79" version="1.1" xmlns="http://www.w3.org/2000/svg" xmlns:xlink="http://www.w3.org/1999/xlink">
    <!-- Generator: Sketch 3.6.1 (26313) - http://www.bohemiancoding.com/sketch -->
    <title>Slice 1</title>
    <desc>Created with Sketch.</desc>
    <defs></defs>
    <g id="Page-1" stroke="none" stroke-width="1" fill="none" fill-rule="evenodd">
        <path d="M41.0346589,62.8648686 L17.2293562,75.3800568 L18.6803056,76.4342333 L23.2267139,49.9266392 L23.3155861,49.4084742 L22.9391172,49.0415078 L3.68022278,30.2687254 L3.12600941,31.9744187 L29.741147,28.1070129 L30.2614142,28.0314136 L30.4940847,27.5599716 L42.3967361,3.44256571 L40.6032639,3.44256571 L52.5059153,27.5599716 L52.7385858,28.0314136 L53.258853,28.1070129 L79.8739906,31.9744187 L79.3197772,30.2687254 L60.0608828,49.0415078 L59.6844139,49.4084742 L59.7732861,49.9266392 L64.3196944,76.4342333 L65.7706438,75.3800568 L41.9653411,62.8648686 L41.5,62.6202243 L41.0346589,62.8648686 L41.0346589,62.8648686 Z M41.9653411,64.6351314 L41.0346589,64.6351314 L64.8399616,77.1503197 L66.6334337,78.0932038 L66.290911,76.0961432 L61.7445028,49.5885491 L61.4569061,50.4736805 L80.7158006,31.7008981 L82.1667501,30.2865719 L80.1615872,29.9952047 L53.5464497,26.1277988 L54.2993874,26.6748402 L42.3967361,2.55743429 L41.5,0.740448538 L40.6032639,2.55743429 L28.7006126,26.6748402 L29.4535503,26.1277988 L2.83841277,29.9952047 L0.833249948,30.2865719 L2.2841994,31.7008981 L21.5430939,50.4736805 L21.2554972,49.5885491 L16.709089,76.0961432 L16.3665663,78.0932038 L18.1600384,77.1503197 L41.9653411,64.6351314 L41.9653411,64.6351314 Z" id="Star-1" fill="#233368"></path>
    </g>
</svg>