<?xml version="1.0" encoding="UTF-8" standalone="no"?>
<svg width="56px" height="62px" viewBox="0 0 56 62" version="1.1" xmlns="http://www.w3.org/2000/svg" xmlns:xlink="http://www.w3.org/1999/xlink">
    <!-- Generator: Sketch 3.6.1 (26313) - http://www.bohemiancoding.com/sketch -->
    <title>Artboard 1 Copy 4</title>
    <desc>Created with Sketch.</desc>
    <defs></defs>
    <g id="Page-1" stroke="none" stroke-width="1" fill="none" fill-rule="evenodd">
        <g id="Artboard-1-Copy-4" fill="#939597">
            <g id="Page-1" transform="translate(1.000000, 12.000000)">
                <path d="M42.6196,13.583 C42.2596,13.583 41.9676,13.875 41.9676,14.235 C41.9676,14.596 42.2596,14.888 42.6196,14.888 C42.9796,14.888 43.2716,14.596 43.2716,14.235 C43.2716,13.875 42.9796,13.583 42.6196,13.583" id="Fill-1"></path>
                <path d="M45.0815,13.583 C44.7215,13.583 44.4295,13.875 44.4295,14.235 C44.4295,14.596 44.7215,14.888 45.0815,14.888 C45.4415,14.888 45.7335,14.596 45.7335,14.235 C45.7335,13.875 45.4415,13.583 45.0815,13.583" id="Fill-3"></path>
                <path d="M39.8301,8.4756 C39.5341,8.4756 39.2931,8.7166 39.2931,9.0126 C39.2931,9.3096 39.5341,9.5506 39.8301,9.5506 C40.1271,9.5506 40.3681,9.3096 40.3681,9.0126 C40.3681,8.7166 40.1271,8.4756 39.8301,8.4756" id="Fill-5"></path>
                <path d="M47.9258,8.4756 C47.6298,8.4756 47.3888,8.7166 47.3888,9.0126 C47.3888,9.3096 47.6298,9.5506 47.9258,9.5506 C48.2228,9.5506 48.4638,9.3096 48.4638,9.0126 C48.4638,8.7166 48.2228,8.4756 47.9258,8.4756" id="Fill-7"></path>
                <path d="M43.8467,16.9726 C42.3147,16.9726 41.0677,15.7266 41.0677,14.1946 C41.0677,12.6626 42.3147,11.4156 43.8467,11.4156 C45.3787,11.4156 46.6247,12.6626 46.6247,14.1946 C46.6247,15.7266 45.3787,16.9726 43.8467,16.9726 M43.8467,10.6496 C41.8917,10.6496 40.3017,12.2396 40.3017,14.1946 C40.3017,16.1486 41.8917,17.7386 43.8467,17.7386 C45.8017,17.7386 47.3907,16.1486 47.3907,14.1946 C47.3907,12.2396 45.8017,10.6496 43.8467,10.6496" id="Fill-9"></path>
                <g id="Group-13" transform="translate(0.000000, 0.620100)">
                    <path d="M53.0215,4.7617 L48.9785,6.5157 C48.8175,6.5857 48.6745,6.5967 48.6055,6.5457 C48.5365,6.4947 48.5065,6.3547 48.5265,6.1807 L49.0295,1.8017 C49.0495,1.6277 49.1105,1.4987 49.1885,1.4637 C49.2065,1.4567 49.2275,1.4527 49.2505,1.4527 C49.3295,1.4527 49.4355,1.4977 49.5455,1.5787 L53.0855,4.2027 C53.2265,4.3077 53.3085,4.4257 53.2985,4.5107 C53.2885,4.5957 53.1825,4.6917 53.0215,4.7617 L53.0215,4.7617 Z M51.1745,14.3407 C51.1765,14.3597 51.3655,16.2257 49.5255,17.4657 C47.5425,18.8047 46.6385,19.1947 46.6245,19.2007 C46.0435,19.4567 44.3965,20.1227 43.7585,20.1227 C43.1265,20.1227 41.6405,19.4617 41.1015,19.1987 C41.0925,19.1947 40.1895,18.8047 38.2055,17.4657 C36.3805,16.2347 36.5485,14.4157 36.5595,14.2977 L36.5595,6.0817 L38.4745,6.9117 C38.6665,6.9947 38.8555,7.0367 39.0325,7.0367 C39.2485,7.0367 39.4455,6.9757 39.6085,6.8547 C39.9055,6.6347 40.0455,6.2457 39.9925,5.7867 L39.6675,2.9617 C40.0075,2.8857 40.3775,2.8337 40.7875,2.8227 L46.9795,2.8237 C47.4015,2.8377 47.7825,2.8887 48.1235,2.9687 L47.7655,6.0927 C47.7125,6.5527 47.8525,6.9417 48.1495,7.1617 C48.3125,7.2827 48.5095,7.3427 48.7245,7.3427 C48.9025,7.3427 49.0915,7.3017 49.2835,7.2187 L51.1715,6.3987 L51.1745,14.3407 Z M34.4595,4.2037 C34.4495,4.1187 34.5305,4.0007 34.6715,3.8967 L38.2125,1.2717 C38.3535,1.1667 38.4885,1.1237 38.5685,1.1577 C38.6465,1.1917 38.7085,1.3227 38.7285,1.4957 L39.2305,5.8737 C39.2505,6.0487 39.2205,6.1887 39.1515,6.2407 C39.0835,6.2897 38.9405,6.2797 38.7785,6.2087 L34.7355,4.4547 C34.5745,4.3847 34.4685,4.2887 34.4595,4.2037 L34.4595,4.2037 Z M17.1445,34.2777 L16.7555,36.2247 L14.2645,36.1547 L13.5765,34.2777 L17.1445,34.2777 Z M36.8995,34.2777 L36.6025,35.8557 L35.0595,35.7267 L34.3815,34.2777 L36.8995,34.2777 Z M4.4835,11.1777 C5.1545,11.1777 5.6995,11.7237 5.6995,12.3947 C5.6995,13.0647 5.1545,13.6097 4.4835,13.6097 C3.8135,13.6097 3.2675,13.0647 3.2675,12.3947 C3.2675,11.7237 3.8135,11.1777 4.4835,11.1777 L4.4835,11.1777 Z M53.5425,3.5877 L50.0015,0.9627 C49.6305,0.6877 49.2225,0.6157 48.8835,0.7617 C48.5445,0.9077 48.3205,1.2557 48.2675,1.7147 L48.2105,2.2067 C47.8425,2.1267 47.4425,2.0727 46.9935,2.0567 L40.7755,2.0557 C40.3405,2.0677 39.9475,2.1227 39.5805,2.1987 L39.4895,1.4077 C39.4375,0.9487 39.2125,0.6017 38.8735,0.4547 C38.5345,0.3067 38.1265,0.3807 37.7555,0.6567 L34.2155,3.2817 C33.8445,3.5557 33.6555,3.9247 33.6975,4.2917 C33.7395,4.6587 34.0075,4.9747 34.4315,5.1577 L35.7925,5.7487 L35.7935,8.1647 C35.7465,8.1437 35.6955,8.1317 35.6415,8.1317 L19.0055,8.1317 C18.7685,8.1307 13.1355,8.0767 9.8365,11.3247 C9.2975,11.8537 8.8575,12.4457 8.5085,13.0897 C8.5005,13.1007 8.4875,13.1077 8.4805,13.1197 C7.3715,14.9167 5.5705,14.5757 5.4955,14.5597 C5.4695,14.5537 5.4425,14.5507 5.4165,14.5507 C5.1095,14.5507 4.8185,14.4847 4.5545,14.3687 C5.6135,14.3307 6.4665,13.4627 6.4665,12.3947 C6.4665,11.3007 5.5765,10.4117 4.4835,10.4117 C3.4345,10.4117 2.5805,11.2347 2.5145,12.2677 C2.5005,12.3067 2.4895,12.3467 2.4895,12.3907 C2.4895,12.9527 2.6555,13.4747 2.9325,13.9217 C1.5905,14.1037 0.6945,13.2967 0.6485,13.2537 C0.4965,13.1077 0.2545,13.1107 0.1075,13.2637 C-0.0395,13.4157 -0.0355,13.6577 0.1175,13.8047 C0.1295,13.8177 1.0925,14.7277 2.5585,14.7277 C2.8555,14.7277 3.1765,14.6837 3.5115,14.5937 C4.0175,15.0327 4.6655,15.3087 5.3825,15.3167 C5.4635,15.3297 5.6465,15.3537 5.8955,15.3537 C6.3785,15.3537 7.1115,15.2597 7.8335,14.8287 C7.6495,15.5447 7.5515,16.3067 7.5515,17.1217 C7.5515,24.9247 10.8735,27.2847 11.8425,27.8067 L11.6795,31.2417 C11.6765,31.2927 11.6845,31.3437 11.7025,31.3917 L13.6345,36.6617 C13.6885,36.8087 13.8265,36.9077 13.9825,36.9117 L17.0565,36.9997 L17.0675,36.9997 C17.2495,36.9997 17.4075,36.8717 17.4425,36.6917 L19.2325,27.7447 C20.5115,28.8797 24.1165,31.1087 30.7525,28.3337 L34.4595,36.2527 C34.5175,36.3767 34.6385,36.4607 34.7745,36.4717 L36.8825,36.6477 C37.0715,36.6607 37.2545,36.5297 37.2915,36.3367 L39.0025,27.2657 C40.1345,26.9497 44.8335,25.4447 47.1205,21.7127 C47.2305,21.5327 47.1745,21.2967 46.9945,21.1857 C46.8135,21.0747 46.5775,21.1317 46.4675,21.3117 C44.0785,25.2087 38.6355,26.5727 38.5805,26.5847 C38.4345,26.6207 38.3215,26.7397 38.2935,26.8857 L37.0435,33.5117 L34.2855,33.5117 C34.1995,33.5117 34.1245,33.5447 34.0615,33.5927 L31.2895,27.6727 C31.2015,27.4847 30.9795,27.4007 30.7895,27.4837 C22.7615,30.9967 19.4395,26.8987 19.3035,26.7237 C19.2115,26.6037 19.0585,26.5507 18.9125,26.5837 C18.7665,26.6177 18.6535,26.7347 18.6245,26.8817 L17.2975,33.5117 L13.2955,33.5117 L12.4485,31.2007 L12.6205,27.5897 C12.6285,27.4257 12.5295,27.2737 12.3765,27.2147 C12.3355,27.1997 8.3175,25.5437 8.3175,17.1217 C8.3175,14.9817 9.0085,13.2147 10.3725,11.8717 C13.4385,8.8507 18.9375,8.9027 18.9995,8.8987 L35.6415,8.8987 C35.6955,8.8987 35.7475,8.8867 35.7935,8.8657 L35.7955,14.2537 C35.7845,14.3497 35.5565,16.6037 37.7765,18.1017 C39.8375,19.4917 40.7655,19.8877 40.7835,19.8947 C40.9905,19.9967 42.8355,20.8897 43.7585,20.8897 C44.6725,20.8897 46.7055,20.0027 46.9275,19.9047 C46.9665,19.8877 47.8935,19.4917 49.9545,18.1017 C52.1755,16.6037 51.9465,14.3497 51.9385,14.2977 L51.9385,6.0667 L53.3265,5.4647 C53.7505,5.2817 54.0175,4.9657 54.0595,4.5977 C54.1015,4.2307 53.9135,3.8637 53.5425,3.5877 L53.5425,3.5877 Z" id="Fill-11"></path>
                </g>
            </g>
        </g>
    </g>
</svg>