<?xml version="1.0" encoding="UTF-8" standalone="no"?>
<svg width="443px" height="443px" viewBox="0 0 443 443" version="1.1" xmlns="http://www.w3.org/2000/svg" xmlns:xlink="http://www.w3.org/1999/xlink">
    <!-- Generator: Sketch 3.6.1 (26313) - http://www.bohemiancoding.com/sketch -->
    <title>Slice 1</title>
    <desc>Created with Sketch.</desc>
    <defs></defs>
    <g id="Page-1" stroke="none" stroke-width="1" fill="none" fill-rule="evenodd">
        <g id="Group-2">
            <path d="M221.299316,442.598633 C343.519554,442.598633 442.598633,343.519554 442.598633,221.299316 C442.598633,99.0790788 343.519554,0 221.299316,0 C99.0790788,0 0,99.0790788 0,221.299316 C0,343.519554 99.0790788,442.598633 221.299316,442.598633 L221.299316,442.598633 Z M221.299316,440.598633 C100.183648,440.598633 2,342.414984 2,221.299316 C2,100.183648 100.183648,2 221.299316,2 C342.414984,2 440.598633,100.183648 440.598633,221.299316 C440.598633,342.414984 342.414984,440.598633 221.299316,440.598633 L221.299316,440.598633 Z" id="Oval-47" fill="#162732"></path>
            <path d="M221.166812,378.333624 C221.503059,378.333624 221.839185,378.332568 222.175186,378.330457 C222.72746,378.326987 223.172353,377.876467 223.168882,377.324193 C223.165412,376.771919 222.714892,376.327026 222.162618,376.330496 C221.830807,376.332581 221.49887,376.333624 221.166812,376.333624 C220.614527,376.333624 220.166812,376.78134 220.166812,377.333624 C220.166812,377.885909 220.614527,378.333624 221.166812,378.333624 L221.166812,378.333624 Z M231.220263,378.017229 C231.553421,377.996196 231.886415,377.974116 232.219242,377.950993 C232.770199,377.912714 233.185806,377.435044 233.147528,376.884088 C233.109249,376.333131 232.631579,375.917524 232.080623,375.955802 C231.751995,375.978634 231.423202,376.000435 231.094246,376.021203 C230.543058,376.056002 230.124443,376.531038 230.159242,377.082225 C230.19404,377.633413 230.669076,378.052028 231.220263,378.017229 L231.220263,378.017229 Z M241.251978,377.06215 C241.58455,377.019725 241.91691,376.976246 242.249055,376.931714 C242.796442,376.858325 243.180693,376.355086 243.107303,375.8077 C243.033914,375.260313 242.530675,374.876062 241.983288,374.949451 C241.65537,374.993416 241.327238,375.036342 240.998896,375.078227 C240.451051,375.148114 240.063589,375.648884 240.133475,376.196729 C240.203362,376.744575 240.704132,377.132036 241.251978,377.06215 L241.251978,377.06215 Z M251.181074,375.470762 C251.510391,375.407078 251.839445,375.342346 252.168234,375.276568 C252.709787,375.168223 253.060971,374.641376 252.952626,374.099823 C252.844281,373.55827 252.317434,373.207085 251.775881,373.31543 C251.451298,373.380368 251.126451,373.444272 250.801346,373.507141 C250.259107,373.612 249.904541,374.136577 250.0094,374.678816 C250.114259,375.221055 250.638835,375.575621 251.181074,375.470762 L251.181074,375.470762 Z M261.010539,373.238773 C261.333901,373.154282 261.656952,373.068762 261.979687,372.982216 C262.513125,372.839166 262.829596,372.290765 262.686547,371.757328 C262.543497,371.223891 261.995096,370.907419 261.461659,371.050469 C261.143061,371.135906 260.824153,371.220329 260.504936,371.303737 C259.970591,371.443355 259.650601,371.989711 259.79022,372.524056 C259.929838,373.058402 260.476194,373.378391 261.010539,373.238773 L261.010539,373.238773 Z M270.653272,370.384121 C270.972008,370.278469 271.290376,370.171797 271.608372,370.064106 C272.131475,369.886955 272.411924,369.319288 272.234773,368.796186 C272.057622,368.273084 271.489954,367.992635 270.966852,368.169786 C270.652934,368.276095 270.338649,368.381399 270.024001,368.485696 C269.499765,368.659464 269.215655,369.225308 269.389424,369.749544 C269.563192,370.273779 270.129036,370.557889 270.653272,370.384121 L270.653272,370.384121 Z M280.110619,366.90641 C280.421665,366.780487 280.73229,366.653567 281.042488,366.525653 C281.553067,366.31511 281.796293,365.730526 281.585751,365.219948 C281.375208,364.709369 280.790624,364.466143 280.280045,364.676686 C279.97382,364.802961 279.667174,364.928255 279.360112,365.052566 C278.848187,365.259813 278.601197,365.842817 278.808443,366.354742 C279.01569,366.866667 279.598694,367.113657 280.110619,366.90641 L280.110619,366.90641 Z M289.312378,362.83152 C289.616137,362.685136 289.919415,362.537774 290.222207,362.389437 C290.718174,362.146465 290.923266,361.547436 290.680293,361.05147 C290.43732,360.555503 289.838292,360.350411 289.342325,360.593384 C289.043402,360.739825 288.744,360.885304 288.444123,361.029817 C287.946597,361.269579 287.737637,361.86727 287.977399,362.364796 C288.217161,362.862323 288.814851,363.071282 289.312378,362.83152 L289.312378,362.83152 Z M298.257694,358.159808 C298.550851,357.994486 298.843474,357.828222 299.135557,357.661019 C299.614864,357.386641 299.780991,356.775658 299.506612,356.296351 C299.232234,355.817045 298.621252,355.650917 298.141945,355.925296 C297.853583,356.090368 297.56469,356.254513 297.275268,356.417729 C296.794206,356.689018 296.624152,357.298919 296.895441,357.779981 C297.16673,358.261043 297.776632,358.431098 298.257694,358.159808 L298.257694,358.159808 Z M306.878908,352.926262 C307.161125,352.742301 307.442751,352.557434 307.723782,352.371664 C308.184506,352.067112 308.311107,351.446733 308.006555,350.98601 C307.702003,350.525286 307.081624,350.398684 306.6209,350.703236 C306.34344,350.886646 306.065393,351.069163 305.786762,351.250787 C305.324093,351.552374 305.19351,352.171927 305.495097,352.634597 C305.796685,353.097267 306.416238,353.22785 306.878908,352.926262 L306.878908,352.926262 Z M315.102318,347.184723 C315.370519,346.984479 315.638084,346.783382 315.905007,346.581434 C316.345441,346.248213 316.432354,345.621041 316.099132,345.180607 C315.765911,344.740173 315.13874,344.653261 314.698306,344.986482 C314.434766,345.18587 314.170593,345.384418 313.905792,345.582123 C313.463246,345.912535 313.372343,346.53914 313.702755,346.981686 C314.033166,347.424232 314.659772,347.515134 315.102318,347.184723 L315.102318,347.184723 Z M322.953229,340.92454 C323.208629,340.707255 323.463338,340.489157 323.717352,340.27025 C324.135714,339.909707 324.182586,339.278279 323.822043,338.859916 C323.4615,338.441554 322.830073,338.394682 322.41171,338.755225 C322.160911,338.971362 321.909426,339.1867 321.657259,339.401235 C321.236609,339.759107 321.185719,340.390224 321.543591,340.810873 C321.901464,341.231522 322.53258,341.282412 322.953229,340.92454 L322.953229,340.92454 Z M330.415444,334.154363 C330.65619,333.921535 330.896197,333.687942 331.135459,333.453589 C331.53001,333.067133 331.536573,332.434002 331.150117,332.039451 C330.763662,331.6449 330.130531,331.638338 329.73598,332.024793 C329.499743,332.256183 329.262772,332.486821 329.02507,332.716705 C328.628072,333.100646 328.617487,333.733723 329.001428,334.130721 C329.385369,334.527719 330.018446,334.538304 330.415444,334.154363 L330.415444,334.154363 Z M337.429986,326.924181 C337.655659,326.676235 337.880542,326.427571 338.104631,326.178195 C338.473772,325.767399 338.440005,325.135135 338.029209,324.765994 C337.618413,324.396853 336.986149,324.430621 336.617008,324.841417 C336.395753,325.087638 336.173715,325.333156 335.950898,325.577966 C335.57915,325.986405 335.608895,326.618871 336.017334,326.990618 C336.425773,327.362365 337.058239,327.33262 337.429986,326.924181 L337.429986,326.924181 Z M343.973357,319.257491 C344.182694,318.995746 344.391197,318.733337 344.598862,318.470267 C344.94106,318.03677 344.867048,317.407946 344.433551,317.065748 C344.000055,316.723551 343.371231,316.797563 343.029033,317.231059 C342.823999,317.490797 342.618137,317.749882 342.41145,318.008311 C342.066499,318.43962 342.136505,319.068903 342.567814,319.413854 C342.999122,319.758805 343.628405,319.688799 343.973357,319.257491 L343.973357,319.257491 Z M350.013572,311.189886 C350.205857,310.915183 350.397264,310.639867 350.587791,310.363943 C350.901602,309.909476 350.787578,309.286662 350.333111,308.972851 C349.878643,308.659039 349.25583,308.773063 348.942018,309.227531 C348.753911,309.499952 348.564933,309.771773 348.375088,310.042989 C348.058381,310.495444 348.168427,311.118973 348.620882,311.435679 C349.073336,311.752386 349.696865,311.642341 350.013572,311.189886 L350.013572,311.189886 Z M355.529422,302.746518 C355.703873,302.459807 355.877405,302.172537 356.050015,301.884713 C356.334062,301.411072 356.180365,300.796844 355.706724,300.512798 C355.233082,300.228751 354.618855,300.382448 354.334809,300.85609 C354.164395,301.14025 353.993072,301.423864 353.820842,301.706925 C353.533766,302.178737 353.683524,302.793936 354.155336,303.081012 C354.627147,303.368087 355.242347,303.218329 355.529422,302.746518 L355.529422,302.746518 Z M360.492991,293.965511 C360.648467,293.668559 360.802993,293.371103 360.956565,293.073149 C361.209592,292.582236 361.016748,291.979153 360.525835,291.726125 C360.034922,291.473098 359.431839,291.665942 359.178812,292.156855 C359.0272,292.451006 358.874647,292.744665 358.721155,293.037828 C358.464982,293.527107 358.653952,294.131415 359.143231,294.387588 C359.63251,294.64376 360.236818,294.45479 360.492991,293.965511 L360.492991,293.965511 Z M364.87989,284.886727 C365.015842,284.580554 365.150815,284.273934 365.284806,283.966871 C365.505688,283.460679 365.274399,282.87127 364.768208,282.650388 C364.262017,282.429506 363.672607,282.660794 363.451725,283.166985 C363.31945,283.470119 363.186204,283.772815 363.051991,284.07507 C362.827858,284.57983 363.055352,285.170715 363.560112,285.394848 C364.064872,285.618981 364.655757,285.391487 364.87989,284.886727 L364.87989,284.886727 Z M368.669571,275.551415 C368.785772,275.236359 368.900963,274.920909 369.015141,274.605068 C369.202904,274.08568 368.934068,273.512422 368.41468,273.324659 C367.895292,273.136897 367.322034,273.405733 367.134271,273.925121 C367.021557,274.236912 366.907843,274.548318 366.793131,274.859335 C366.602019,275.377499 366.867146,275.952482 367.385311,276.143595 C367.903475,276.334708 368.478458,276.06958 368.669571,275.551415 L368.669571,275.551415 Z M371.828379,266.059851 C371.92412,265.738067 372.018831,265.415942 372.112511,265.09348 C372.266587,264.563123 371.961551,264.00828 371.431194,263.854204 C370.900837,263.700127 370.345994,264.005163 370.191917,264.535521 C370.099439,264.853846 370.005942,265.17184 369.911429,265.489497 C369.75393,266.018848 370.055376,266.57565 370.584727,266.733149 C371.114078,266.890648 371.67088,266.589202 371.828379,266.059851 L371.828379,266.059851 Z M374.375632,256.370278 C374.450507,256.043077 374.524338,255.715589 374.597123,255.387816 C374.716846,254.848664 374.376833,254.31454 373.837681,254.194816 C373.298529,254.075093 372.764405,254.415107 372.644681,254.954258 C372.572828,255.277834 372.499943,255.601129 372.426027,255.924138 C372.302829,256.462507 372.639391,256.998813 373.17776,257.122011 C373.716128,257.245209 374.252434,256.908646 374.375632,256.370278 L374.375632,256.370278 Z M376.303548,246.493225 C376.357172,246.162228 376.409746,245.830995 376.461266,245.499528 C376.54609,244.953796 376.172451,244.442629 375.626719,244.357805 C375.080987,244.272981 374.56982,244.646621 374.484996,245.192353 C374.434133,245.519592 374.38223,245.846601 374.329289,246.173376 C374.240965,246.718552 374.611317,247.232106 375.156494,247.32043 C375.70167,247.408754 376.215224,247.038402 376.303548,246.493225 L376.303548,246.493225 Z M377.595212,236.499267 C377.627527,236.165512 377.658788,235.831568 377.688992,235.497439 C377.738713,234.947397 377.333123,234.461193 376.783081,234.411471 C376.233039,234.361749 375.746835,234.767339 375.697113,235.317381 C375.667292,235.647279 375.636427,235.976993 375.604521,236.306521 C375.551296,236.856235 375.953779,237.345014 376.503493,237.398239 C377.053207,237.451465 377.541986,237.048981 377.595212,236.499267 L377.595212,236.499267 Z M378.246623,226.445877 C378.257684,226.110776 378.267692,225.775532 378.276646,225.440149 C378.291385,224.888061 377.855778,224.428557 377.303689,224.413817 C376.751601,224.399078 376.292097,224.834686 376.277358,225.386774 C376.268517,225.717955 376.258634,226.048997 376.247712,226.379897 C376.229492,226.931882 376.662194,227.394123 377.214178,227.412343 C377.766162,227.430563 378.228403,226.997861 378.246623,226.445877 L378.246623,226.445877 Z M378.262011,216.376669 C378.252046,216.043831 378.241043,215.711133 378.229002,215.378577 C378.209019,214.826654 377.745397,214.395432 377.193474,214.415415 C376.641551,214.435399 376.210328,214.899021 376.230312,215.450944 C376.242202,215.779328 376.253067,216.107854 376.262907,216.436519 C376.279434,216.988557 376.740347,217.422673 377.292384,217.406146 C377.844421,217.389619 378.278538,216.928706 378.262011,216.376669 L378.262011,216.376669 Z M377.642466,206.330565 C377.61122,205.996876 377.57892,205.663375 377.545567,205.330064 C377.490577,204.780524 377.000508,204.379612 376.450967,204.434602 C375.901427,204.489592 375.500515,204.979661 375.555506,205.529202 C375.588436,205.858288 375.620327,206.187564 375.651177,206.517025 C375.702666,207.066905 376.190172,207.470929 376.740052,207.41944 C377.289931,207.36795 377.693956,206.880444 377.642466,206.330565 L377.642466,206.330565 Z M376.384013,196.342219 C376.331362,196.010424 376.277655,195.678865 376.222895,195.347546 C376.132834,194.802654 375.618103,194.43394 375.073211,194.524001 C374.528318,194.614061 374.159605,195.128792 374.249665,195.673685 C374.303727,196.000776 374.356749,196.328105 374.408728,196.655667 C374.495284,197.201127 375.007635,197.573142 375.553095,197.486586 C376.098554,197.400029 376.470569,196.887679 376.384013,196.342219 L376.384013,196.342219 Z M374.487107,186.454121 C374.413337,186.126907 374.338525,185.79998 374.262671,185.473343 C374.13774,184.935374 373.600353,184.600541 373.062384,184.725472 C372.524415,184.850403 372.189582,185.38779 372.314513,185.925759 C372.389395,186.248212 372.463249,186.570952 372.536074,186.893975 C372.657536,187.432737 373.192754,187.771026 373.731517,187.649564 C374.27028,187.528102 374.608569,186.992883 374.487107,186.454121 L374.487107,186.454121 Z M371.952867,176.69434 C371.858638,176.374346 371.763391,176.054686 371.667129,175.735367 C371.507723,175.206587 370.949838,174.90715 370.421058,175.066556 C369.892278,175.225962 369.592841,175.783847 369.752247,176.312627 C369.847275,176.627851 369.9413,176.94341 370.034321,177.2593 C370.190331,177.789092 370.746282,178.092103 371.276074,177.936093 C371.805866,177.780084 372.108877,177.224132 371.952867,176.69434 L371.952867,176.69434 Z M368.809404,167.162864 C368.69449,166.848784 368.578573,166.535094 368.461656,166.221798 C368.26856,165.70437 367.692565,165.441447 367.175137,165.634544 C366.657708,165.82764 366.394785,166.403634 366.587882,166.921063 C366.7033,167.230342 366.817731,167.54001 366.931172,167.850064 C367.120937,168.368723 367.695229,168.635345 368.213889,168.44558 C368.732548,168.255815 368.99917,167.681523 368.809404,167.162864 L368.809404,167.162864 Z M365.043046,157.815616 C364.907013,157.507119 364.769988,157.199075 364.631971,156.891487 C364.405876,156.387603 363.814111,156.16241 363.310226,156.388506 C362.806342,156.614601 362.58115,157.206366 362.807245,157.710251 C362.943496,158.013903 363.078768,158.318006 363.21306,158.622555 C363.43589,159.127891 364.026185,159.356908 364.531522,159.134078 C365.036859,158.911248 365.265876,158.320953 365.043046,157.815616 L365.043046,157.815616 Z M360.678699,148.723915 C360.524444,148.427449 360.369242,148.131481 360.213098,147.836016 C359.95505,147.347723 359.350022,147.161073 358.861729,147.419121 C358.373436,147.677169 358.186786,148.282197 358.444834,148.77049 C358.598986,149.062184 358.752206,149.354375 358.904493,149.647058 C359.159411,150.136991 359.763234,150.327508 360.253167,150.072589 C360.743101,149.817671 360.933618,149.213849 360.678699,148.723915 L360.678699,148.723915 Z M355.744531,139.941693 C355.570642,139.654198 355.395832,139.367263 355.220103,139.080891 C354.931249,138.610167 354.315489,138.462732 353.844764,138.751586 C353.374039,139.04044 353.226604,139.656201 353.515459,140.126925 C353.688951,140.409653 353.861537,140.692937 354.033213,140.976772 C354.319042,141.44934 354.933844,141.600721 355.406412,141.314892 C355.878979,141.029062 356.030361,140.41426 355.744531,139.941693 L355.744531,139.941693 Z M350.241888,131.470798 C350.050423,131.195787 349.85808,130.921386 349.664863,130.6476 C349.346418,130.196368 348.72247,130.088722 348.271238,130.407168 C347.820005,130.725613 347.71236,131.349561 348.030805,131.800793 C348.22157,132.071105 348.411472,132.342023 348.600507,132.613543 C348.916067,133.066798 349.539315,133.178422 349.99257,132.862861 C350.445825,132.547301 350.557449,131.924053 350.241888,131.470798 L350.241888,131.470798 Z M344.276725,123.45665 C344.068503,123.194649 343.859447,122.933308 343.649561,122.672633 C343.303198,122.242457 342.673689,122.174513 342.243513,122.520876 C341.813337,122.867238 341.745393,123.496747 342.091755,123.926923 C342.298983,124.184296 342.505391,124.442327 342.710977,124.70101 C343.054597,125.133379 343.683661,125.205325 344.116031,124.861704 C344.5484,124.518084 344.620346,123.88902 344.276725,123.45665 L344.276725,123.45665 Z M337.756681,115.769494 C337.531135,115.52015 337.304793,115.271525 337.077659,115.023624 C336.704564,114.616415 336.072004,114.588761 335.664795,114.961856 C335.257587,115.334951 335.229933,115.967511 335.603027,116.37472 C335.827288,116.619485 336.050767,116.864965 336.27346,117.111155 C336.643949,117.520735 337.276321,117.552425 337.685901,117.181935 C338.095481,116.811446 338.127171,116.179074 337.756681,115.769494 L337.756681,115.769494 Z M330.764331,108.517713 C330.523279,108.28315 330.281478,108.049357 330.038934,107.816338 C329.640668,107.433712 329.00763,107.44639 328.625004,107.844656 C328.242378,108.242922 328.255056,108.87596 328.653322,109.258586 C328.892799,109.488658 329.131541,109.719495 329.369545,109.951091 C329.765362,110.336251 330.398468,110.327611 330.783627,109.931795 C331.168787,109.535979 331.160148,108.902873 330.764331,108.517713 L330.764331,108.517713 Z M323.323176,101.724803 C323.069135,101.507323 322.814404,101.290651 322.55899,101.07479 C322.137172,100.718295 321.506225,100.77125 321.149731,101.193068 C320.793236,101.614885 320.846191,102.245832 321.268009,102.602326 C321.520191,102.815455 321.771697,103.029385 322.022523,103.244113 C322.442068,103.603278 323.073339,103.554331 323.432504,103.134785 C323.791669,102.715239 323.742721,102.083969 323.323176,101.724803 L323.323176,101.724803 Z M315.468508,95.4231327 C315.199943,95.2214028 314.930736,95.0205318 314.660891,94.8205233 C314.217196,94.4916573 313.590911,94.5847449 313.262045,95.0284403 C312.933179,95.4721357 313.026267,96.0984204 313.469962,96.4272864 C313.736386,96.6247591 314.00218,96.8230833 314.267339,97.0222557 C314.708925,97.3539492 315.335791,97.264864 315.667485,96.8232784 C315.999178,96.3816928 315.910093,95.7548262 315.468508,95.4231327 L315.468508,95.4231327 Z M307.21316,89.6258465 C306.933254,89.4423781 306.652763,89.259803 306.371692,89.0781243 C305.907867,88.7783169 305.28882,88.9112796 304.989012,89.3751049 C304.689205,89.8389303 304.822168,90.4579769 305.285993,90.7577844 C305.563491,90.9371539 305.840417,91.1174086 306.116767,91.2985455 C306.57867,91.6013061 307.198552,91.4722957 307.501313,91.0103927 C307.804073,90.5484896 307.675063,89.9286072 307.21316,89.6258465 L307.21316,89.6258465 Z M298.606338,84.371017 C298.314021,84.2051835 298.02117,84.0402879 297.727788,83.8763332 C297.245679,83.606909 296.636441,83.7793241 296.367017,84.2614331 C296.097593,84.7435421 296.270008,85.3527801 296.752117,85.6222042 C297.041759,85.7840692 297.330878,85.9468631 297.61947,86.1105832 C298.099838,86.3830994 298.710171,86.2146023 298.982687,85.7342344 C299.255203,85.2538664 299.086706,84.6435332 298.606338,84.371017 L298.606338,84.371017 Z M289.687857,79.6836674 C289.386325,79.5373655 289.084317,79.3920291 288.781837,79.2476606 C288.283413,79.0097712 287.686512,79.2209767 287.448623,79.7194013 C287.210733,80.2178259 287.421939,80.8147263 287.920364,81.0526157 C288.218977,81.1951389 288.517125,81.3386178 288.814803,81.48305 C289.311689,81.724137 289.909934,81.5167712 290.151021,81.0198855 C290.392108,80.5229997 290.184742,79.9247545 289.687857,79.6836674 L289.687857,79.6836674 Z M280.471263,75.5737403 C280.16011,75.4468694 279.848532,75.3209972 279.536535,75.196126 C279.023792,74.99091 278.441772,75.2402095 278.236556,75.752952 C278.03134,76.2656945 278.280639,76.8477148 278.793382,77.0529307 C279.101382,77.1762023 279.408968,77.3004621 279.716137,77.4257078 C280.227543,77.6342303 280.811161,77.3886941 281.019684,76.8772874 C281.228206,76.3658808 280.98267,75.7822628 280.471263,75.5737403 L280.471263,75.5737403 Z M271.039252,72.0780035 C270.72114,71.9716369 270.40266,71.8662885 270.083816,71.7619601 C269.558916,71.5902086 268.994168,71.8764919 268.822417,72.4013917 C268.650665,72.9262916 268.936948,73.4910391 269.461848,73.6627906 C269.776603,73.7657809 270.090999,73.8697782 270.405031,73.9747806 C270.928812,74.149916 271.495395,73.8672833 271.67053,73.3435027 C271.845666,72.8197222 271.563033,72.2531389 271.039252,72.0780035 L271.039252,72.0780035 Z M261.495053,69.2222809 C261.170913,69.1364737 260.846458,69.0517016 260.521692,68.9679661 C259.986897,68.8300782 259.44158,69.1518347 259.303692,69.6866294 C259.165804,70.2214241 259.487561,70.7667411 260.022356,70.904629 C260.342958,70.987291 260.663254,71.0709764 260.983238,71.1556834 C261.517132,71.2970173 262.064513,70.978784 262.205847,70.4448897 C262.347181,69.9109953 262.028947,69.3636147 261.495053,69.2222809 L261.495053,69.2222809 Z M251.692287,66.9626047 C251.36339,66.8978651 251.03423,66.8341721 250.70481,66.7715272 C250.162249,66.6683497 249.638774,67.0245407 249.535596,67.5671021 C249.432419,68.1096634 249.78861,68.6331382 250.331171,68.7363158 C250.656379,68.7981597 250.98133,68.8610383 251.306022,68.92495 C251.847908,69.0316142 252.373663,68.6787966 252.480327,68.1369099 C252.586991,67.5950232 252.234174,67.0692689 251.692287,66.9626047 L251.692287,66.9626047 Z M241.743296,65.334937 C241.410858,65.2914643 241.078207,65.2490452 240.745346,65.207681 C240.197277,65.1395733 239.697767,65.5286589 239.629659,66.076728 C239.561551,66.6247971 239.950637,67.1243072 240.498706,67.1924149 C240.827335,67.2332532 241.155755,67.2751328 241.483965,67.3180526 C242.031587,67.389665 242.533576,67.0037827 242.605188,66.4561605 C242.676801,65.9085382 242.290918,65.4065494 241.743296,65.334937 L241.743296,65.334937 Z M231.720649,64.3487808 C231.385954,64.3265874 231.051094,64.3054498 230.71607,64.2853689 C230.164775,64.2523249 229.691074,64.6724507 229.65803,65.223746 C229.624986,65.7750413 230.045112,66.2487419 230.596407,66.2817859 C230.927208,66.3016136 231.257847,66.3224848 231.58832,66.3443983 C232.139395,66.3809398 232.615752,65.9638283 232.652293,65.4127537 C232.688835,64.8616792 232.271723,64.3853223 231.720649,64.3487808 L231.720649,64.3487808 Z M221.651334,64.0007311 C221.489855,64.0002437 221.328348,64 221.166812,64 C220.994686,64 220.822592,64.0002767 220.65053,64.0008301 C220.098249,64.0026063 219.651975,64.4517591 219.653752,65.004041 C219.655528,65.5563229 220.104681,66.002596 220.656963,66.0008198 C220.82688,66.0002733 220.99683,66 221.166812,66 C221.326335,66 221.485831,66.0002407 221.645298,66.000722 C222.19758,66.0023889 222.646644,65.556027 222.648311,65.0037447 C222.649978,64.4514625 222.203616,64.002398 221.651334,64.0007311 L221.651334,64.0007311 Z M211.598512,64.2865114 C211.264427,64.3065763 210.930504,64.3276921 210.596747,64.3498578 C210.045676,64.3864558 209.628613,64.8628554 209.665211,65.4139263 C209.701809,65.9649971 210.178209,66.3820597 210.72928,66.3454617 C211.058828,66.3235756 211.388541,66.302726 211.718415,66.282914 C212.269706,66.2498038 212.689775,65.7760527 212.656665,65.2247613 C212.623554,64.67347 212.149803,64.2534012 211.598512,64.2865114 L211.598512,64.2865114 Z M201.558062,65.211439 C201.224498,65.252956 200.891145,65.2955325 200.558007,65.3391671 C200.010399,65.4108931 199.624621,65.9129619 199.696347,66.4605693 C199.768073,67.0081766 200.270142,67.3939548 200.817749,67.3222289 C201.14665,67.2791492 201.475763,67.2371143 201.805086,67.1961251 C202.353142,67.1279113 202.742131,66.628326 202.673917,66.08027 C202.605703,65.5322141 202.106118,65.1432252 201.558062,65.211439 L201.558062,65.211439 Z M191.619169,66.7733618 C191.288801,66.8362085 190.958694,66.9001094 190.628852,66.9650629 C190.086973,67.0717712 189.734199,67.5975543 189.840907,68.1394323 C189.947615,68.6813103 190.473398,69.0340851 191.015276,68.9273768 C191.340901,68.8632539 191.666787,68.8001701 191.992931,68.7381269 C192.535486,68.6349153 192.891644,68.1114181 192.788432,67.5688632 C192.685221,67.0263083 192.161724,66.6701502 191.619169,66.7733618 L191.619169,66.7733618 Z M181.793497,68.9727205 C181.468992,69.056431 181.144797,69.1411766 180.820917,69.2269556 C180.287039,69.3683519 179.96887,69.9157697 180.110266,70.4496475 C180.251662,70.9835254 180.79908,71.3016945 181.332958,71.1602982 C181.652686,71.075619 181.972724,70.9919599 182.29307,70.9093225 C182.827848,70.7713693 183.149538,70.226013 183.011584,69.6912352 C182.873631,69.1564573 182.328275,68.8347673 181.793497,68.9727205 L181.793497,68.9727205 Z M172.124061,71.8031647 C171.804153,71.9081419 171.484612,72.0141463 171.165442,72.1211759 C170.641815,72.2967679 170.359676,72.8635974 170.535268,73.3872251 C170.71086,73.9108527 171.27769,74.1929913 171.801317,74.0173993 C172.116394,73.9117424 172.431836,73.8070976 172.747641,73.7034668 C173.272395,73.5312699 173.558199,72.9662797 173.386003,72.4415257 C173.213806,71.9167718 172.648815,71.6309679 172.124061,71.8031647 L172.124061,71.8031647 Z M162.681386,75.2424881 C162.369029,75.3677925 162.057094,75.4941005 161.745585,75.6214098 C161.234347,75.8303453 160.989283,76.4141614 161.198218,76.9253995 C161.407154,77.4366376 161.99097,77.6817022 162.502208,77.4727666 C162.809727,77.3470881 163.117666,77.2223981 163.426021,77.0986989 C163.938599,76.8930736 164.187434,76.3108544 163.981809,75.798276 C163.776183,75.2856975 163.193964,75.0368628 162.681386,75.2424881 L162.681386,75.2424881 Z M153.451043,79.295788 C153.149175,79.4401291 152.847778,79.5854346 152.546856,79.7317019 C152.05014,79.9731381 151.843194,80.5715288 152.084631,81.0682451 C152.326067,81.5649613 152.924457,81.7719067 153.421174,81.5304706 C153.71825,81.3860726 154.015795,81.2426242 154.313805,81.100128 C154.812059,80.861883 155.022839,80.264832 154.784594,79.7665773 C154.546349,79.2683225 153.949298,79.057543 153.451043,79.295788 L153.451043,79.295788 Z M144.502801,83.9339646 C144.211136,84.0972482 143.919996,84.2614621 143.629385,84.4266034 C143.149213,84.6994641 142.981154,85.309918 143.254014,85.7900904 C143.526875,86.2702627 144.137329,86.438322 144.617501,86.1654612 C144.904409,86.0024245 145.191838,85.8403035 145.479786,85.679101 C145.961692,85.4093142 146.133648,84.7999466 145.863862,84.3180405 C145.594075,83.8361344 144.984707,83.6641777 144.502801,83.9339646 L144.502801,83.9339646 Z M135.864045,89.141448 C135.582966,89.3234274 135.302468,89.5063038 135.022556,89.690074 C134.560878,89.9931782 134.432329,90.6131564 134.735433,91.0748341 C135.038538,91.5365118 135.658516,91.665061 136.120194,91.3619567 C136.396549,91.1805219 136.673482,90.9999697 136.950989,90.8203032 C137.414592,90.5201522 137.547096,89.9010071 137.246945,89.4374041 C136.946794,88.973801 136.327649,88.841297 135.864045,89.141448 L135.864045,89.141448 Z M127.610173,94.8669167 C127.340468,95.067028 127.071401,95.268001 126.802977,95.4698324 C126.361555,95.8017434 126.272779,96.4286538 126.60469,96.870076 C126.936601,97.3114981 127.563511,97.4002745 128.004933,97.0683634 C128.269954,96.8690908 128.53561,96.6706657 128.801895,96.4730916 C129.245428,96.1440066 129.338207,95.517676 129.009121,95.074143 C128.680036,94.6306101 128.053706,94.5378317 127.610173,94.8669167 L127.610173,94.8669167 Z M119.751329,101.094491 C119.494316,101.311787 119.237997,101.529905 118.982377,101.748841 C118.562915,102.108104 118.514115,102.739386 118.873378,103.158848 C119.232642,103.57831 119.863923,103.62711 120.283385,103.267846 C120.535771,103.051681 120.788845,102.836324 121.042605,102.621778 C121.464353,102.265202 121.517186,101.634245 121.16061,101.212496 C120.804034,100.790748 120.173077,100.737915 119.751329,101.094491 L119.751329,101.094491 Z M112.26811,107.84188 C112.025695,108.074884 111.784024,108.308661 111.5431,108.543207 C111.147373,108.928458 111.13888,109.561566 111.524131,109.957293 C111.909382,110.353021 112.54249,110.361513 112.938217,109.976262 C113.176094,109.744683 113.414709,109.513862 113.654058,109.283805 C114.052235,108.901086 114.064766,108.268045 113.682047,107.869869 C113.299328,107.471692 112.666287,107.459161 112.26811,107.84188 L112.26811,107.84188 Z M105.23143,115.050408 C105.005593,115.297008 104.78054,115.544322 104.556274,115.792348 C104.185864,116.202001 104.217677,116.834366 104.627329,117.204776 C105.036982,117.575185 105.669347,117.543373 106.039757,117.13372 C106.261186,116.888832 106.483392,116.644646 106.706372,116.401166 C107.079373,115.993872 107.051574,115.361317 106.64428,114.988316 C106.236986,114.615314 105.604431,114.643114 105.23143,115.050408 L105.23143,115.050408 Z M98.6647878,122.696579 C98.454992,122.957245 98.2460259,123.218577 98.0378932,123.48057 C97.6943564,123.913006 97.7664235,124.542056 98.1988596,124.885593 C98.6312957,125.229129 99.2603459,125.157062 99.6038827,124.724626 C99.8093791,124.465952 100.015699,124.20793 100.222837,123.950565 C100.569116,123.520322 100.501049,122.890826 100.070806,122.544547 C99.6405623,122.198268 99.0110666,122.266335 98.6647878,122.696579 L98.6647878,122.696579 Z M92.600203,130.744824 C92.4071809,131.018772 92.2150337,131.293335 92.0237646,131.568507 C91.7085467,132.022 91.820641,132.645164 92.2741342,132.960382 C92.7276274,133.2756 93.3507909,133.163505 93.6660089,132.710012 C93.8548502,132.438332 94.0445587,132.167255 94.235131,131.896784 C94.5532358,131.445311 94.4451196,130.821445 93.9936467,130.50334 C93.5421738,130.185235 92.9183078,130.293351 92.600203,130.744824 L92.600203,130.744824 Z M87.0588881,139.169989 C86.8834402,139.456331 86.7089099,139.743234 86.5353002,140.030696 C86.2497836,140.503453 86.4015717,141.118155 86.8743282,141.403671 C87.3470848,141.689188 87.9617866,141.5374 88.2473031,141.064643 C88.4187033,140.78084 88.5910125,140.497587 88.7642278,140.214889 C89.052769,139.743973 88.9049246,139.128311 88.4340081,138.839769 C87.9630915,138.551228 87.3474293,138.699073 87.0588881,139.169989 L87.0588881,139.169989 Z M82.0688052,147.933969 C81.9120949,148.231013 81.7563373,148.528565 81.6015354,148.826619 C81.3469786,149.316741 81.5379417,149.920422 82.0280634,150.174979 C82.5181852,150.429536 83.1218663,150.238573 83.3764231,149.748451 C83.5292493,149.4542 83.6830189,149.160447 83.8377293,148.867193 C84.0954321,148.378718 83.9083543,147.773822 83.4198794,147.516119 C82.9314044,147.258416 82.3265079,147.445494 82.0688052,147.933969 L82.0688052,147.933969 Z M77.6543926,156.996917 C77.5175264,157.302547 77.3816379,157.608626 77.2467295,157.915151 C77.0242513,158.420643 77.2536791,159.010779 77.7591708,159.233257 C78.2646625,159.455735 78.8547987,159.226308 79.077277,158.720816 C79.2104589,158.418214 79.3446086,158.116051 79.4797236,157.814332 C79.7054464,157.310281 79.4798167,156.718682 78.9757655,156.492959 C78.4717143,156.267236 77.8801155,156.492866 77.6543926,156.996917 L77.6543926,156.996917 Z M73.8362555,166.317591 C73.7191845,166.631928 73.6031201,166.946661 73.4880646,167.261786 C73.2986497,167.780573 73.5656589,168.354685 74.0844463,168.5441 C74.6032338,168.733515 75.1773453,168.466505 75.3667602,167.947718 C75.4803407,167.636633 75.5949171,167.325935 75.7104874,167.015628 C75.9032449,166.498073 75.6399445,165.922251 75.1223897,165.729494 C74.6048348,165.536736 74.0290129,165.800037 73.8362555,166.317591 L73.8362555,166.317591 Z M70.6395807,175.824745 C70.5429439,176.146004 70.4473346,176.467605 70.3527547,176.789544 C70.1970825,177.319436 70.5004468,177.875194 71.0303379,178.030867 C71.560229,178.186539 72.1159879,177.883175 72.2716602,177.353283 C72.365027,177.035473 72.45941,176.717997 72.5548073,176.400859 C72.7138967,175.871984 72.4141261,175.314278 71.8852508,175.155189 C71.3563756,174.9961 70.7986701,175.29587 70.6395807,175.824745 L70.6395807,175.824745 Z M68.0675504,185.488001 C67.9917611,185.814502 67.9170126,186.141292 67.8433063,186.468369 C67.7218944,187.007143 68.0602333,187.54233 68.5990075,187.663741 C69.1377816,187.785153 69.6729682,187.446814 69.7943801,186.90804 C69.8671424,186.585153 69.9409335,186.262548 70.0157521,185.940229 C70.1406314,185.402248 69.8057463,184.864893 69.2677653,184.740014 C68.7297843,184.615135 68.1924297,184.95002 68.0675504,185.488001 L68.0675504,185.488001 Z M66.107107,195.369475 C66.0524774,195.700291 65.998899,196.031346 65.9463729,196.362636 C65.8598885,196.908108 66.2319709,197.420409 66.7774422,197.506893 C67.3229134,197.593378 67.8352147,197.221295 67.9216991,196.675824 C67.9735551,196.348759 68.02645,196.021928 68.0803825,195.695333 C68.1703659,195.150428 67.8015791,194.63575 67.2566741,194.545766 C66.7117691,194.455783 66.1970904,194.82457 66.107107,195.369475 L66.107107,195.369475 Z M64.7856558,205.354084 C64.7523283,205.687653 64.7200556,206.021414 64.6888385,206.355361 C64.6374356,206.905248 65.0415372,207.39269 65.5914246,207.444093 C66.141312,207.495496 66.6287542,207.091395 66.6801571,206.541507 C66.7109787,206.21179 66.7428425,205.882259 66.7757476,205.552917 C66.8306539,205.003369 66.429667,204.513361 65.8801183,204.458455 C65.3305696,204.403548 64.8405621,204.804535 64.7856558,205.354084 L64.7856558,205.354084 Z M64.1038768,215.3992 C64.0917866,215.734315 64.0807502,216.069576 64.0707683,216.404978 C64.0543391,216.957018 64.4885377,217.417853 65.0405781,217.434283 C65.5926184,217.450712 66.053454,217.016513 66.0698832,216.464473 C66.0797399,216.133276 66.090638,215.80222 66.1025764,215.471308 C66.1224886,214.919383 65.6912064,214.455816 65.1392807,214.435904 C64.587355,214.415992 64.1237889,214.847274 64.1038768,215.3992 L64.1038768,215.3992 Z M64.0577155,225.467661 C64.0666827,225.801393 64.0766937,226.134987 64.0877475,226.46844 C64.1060454,227.020422 64.5683483,227.453058 65.1203298,227.43476 C65.6723114,227.416462 66.1049474,226.954159 66.0866495,226.402177 C66.0757343,226.072905 66.0658488,225.743492 66.0569939,225.413941 C66.0421596,224.861856 65.5825804,224.426328 65.0304949,224.441162 C64.4784094,224.455996 64.0428812,224.915576 64.0577155,225.467661 L64.0577155,225.467661 Z M64.646849,235.521933 C64.6771524,235.856581 64.7085154,236.191044 64.740937,236.525317 C64.7942536,237.075022 65.2830994,237.477425 65.8328045,237.424108 C66.3825097,237.370791 66.7849122,236.881946 66.7315955,236.33224 C66.6995847,236.002202 66.6686189,235.671976 66.6386992,235.341565 C66.588892,234.791531 66.1026243,234.386017 65.5525901,234.435824 C65.0025558,234.485631 64.5970417,234.971899 64.646849,235.521933 L64.646849,235.521933 Z M65.8754667,245.519518 C65.927241,245.852335 65.9800767,246.184917 66.0339726,246.51726 C66.1223813,247.062423 66.6359924,247.432695 67.1811551,247.344287 C67.7263177,247.255878 68.09659,246.742267 68.0081813,246.197104 C67.9549729,245.869001 67.9028111,245.540661 67.8516971,245.212088 C67.7668027,244.666367 67.2555879,244.292794 66.7098669,244.377688 C66.164146,244.462582 65.7905722,244.973797 65.8754667,245.519518 L65.8754667,245.519518 Z M67.7398847,255.403048 C67.8128274,255.731376 67.8868197,256.059419 67.9618598,256.387173 C68.0851175,256.925528 68.6214605,257.262031 69.1598154,257.138773 C69.6981703,257.015515 70.034673,256.479172 69.9114152,255.940817 C69.8373362,255.617261 69.7642915,255.293419 69.6922829,254.969295 C69.5725054,254.430155 69.0383473,254.090195 68.4992074,254.209972 C67.9600676,254.32975 67.6201072,254.863908 67.7398847,255.403048 L67.7398847,255.403048 Z M70.2447161,265.174643 C70.3382079,265.495808 70.4327231,265.816638 70.5282602,266.13713 C70.6860329,266.666399 71.2429906,266.967557 71.7722601,266.809784 C72.3015297,266.652012 72.6026873,266.095054 72.4449146,265.565784 C72.3506029,265.249403 72.2572999,264.932688 72.1650073,264.615643 C72.0106435,264.085369 71.4556351,263.780634 70.9253613,263.934997 C70.3950876,264.089361 70.0903523,264.64437 70.2447161,265.174643 L70.2447161,265.174643 Z M73.3597272,274.719019 C73.4739926,275.034333 73.5892671,275.349258 73.7055487,275.663788 C73.8970592,276.181806 74.4722453,276.446492 74.9902629,276.254981 C75.5082804,276.063471 75.7729666,275.488285 75.5814561,274.970267 C75.4666653,274.659769 75.3528687,274.348882 75.2400682,274.03761 C75.0519024,273.518368 74.4784352,273.249978 73.9591934,273.438144 C73.4399516,273.62631 73.1715614,274.199777 73.3597272,274.719019 L73.3597272,274.719019 Z M77.0983976,284.080366 C77.2323951,284.386783 77.3673711,284.692758 77.5033232,284.998286 C77.7278503,285.502871 78.3189125,285.729903 78.8234975,285.505375 C79.3280825,285.280848 79.5551142,284.689786 79.3305871,284.185201 C79.1963747,283.883583 79.0631261,283.581524 78.9308434,283.279029 C78.7095601,282.773013 78.1199675,282.542191 77.6139516,282.763475 C77.1079357,282.984758 76.8771143,283.57435 77.0983976,284.080366 L77.0983976,284.080366 Z M81.429147,293.174117 C81.5829456,293.47198 81.7376972,293.769343 81.8933994,294.066203 C82.149927,294.555296 82.754372,294.743828 83.2434651,294.4873 C83.7325581,294.230773 83.9210896,293.626328 83.664562,293.137235 C83.5108471,292.844163 83.3580706,292.550595 83.2062353,292.256535 C82.952852,291.765805 82.3496295,291.573398 81.8589001,291.826782 C81.3681707,292.080165 81.1757637,292.683388 81.429147,293.174117 L81.429147,293.174117 Z M86.3367397,301.973241 C86.5102894,302.262201 86.6847679,302.5506 86.8601723,302.838435 C87.1475708,303.31005 87.7628727,303.459386 88.2344875,303.171988 C88.7061023,302.884589 88.8554391,302.269287 88.5680406,301.797673 C88.3948685,301.513501 88.2226106,301.228772 88.05127,300.943491 C87.7669122,300.470036 87.1525841,300.316743 86.6791296,300.601101 C86.2056752,300.885458 86.052382,301.499787 86.3367397,301.973241 L86.3367397,301.973241 Z M91.8053767,310.450113 C91.9966272,310.726692 92.1887634,311.002659 92.3817819,311.278009 C92.6987975,311.730248 93.3224011,311.839868 93.7746394,311.522852 C94.2268778,311.205836 94.3364975,310.582233 94.0194819,310.129994 C93.8289133,309.858139 93.639216,309.585675 93.4503932,309.312607 C93.1362795,308.858348 92.5133906,308.744738 92.0591318,309.058852 C91.604873,309.372966 91.491263,309.995855 91.8053767,310.450113 L91.8053767,310.450113 Z M97.7546844,318.495499 C97.9628391,318.759079 98.1718355,319.021996 98.3816699,319.284245 C98.7267148,319.715479 99.3560129,319.785348 99.7872466,319.440303 C100.21848,319.095258 100.28835,318.46596 99.9433051,318.034727 C99.7361285,317.7758 99.5297794,317.516213 99.3242613,317.255972 C98.9819753,316.822545 98.3531359,316.748661 97.9197092,317.090947 C97.4862825,317.433233 97.4123983,318.062072 97.7546844,318.495499 L97.7546844,318.495499 Z M104.251347,326.203066 C104.475226,326.452102 104.699896,326.700426 104.925354,326.948036 C105.297184,327.356399 105.929656,327.386014 106.33802,327.014184 C106.746383,326.642353 106.775998,326.009881 106.404168,325.601518 C106.181562,325.357041 105.959734,325.111858 105.738688,324.865973 C105.36946,324.455255 104.737189,324.421621 104.326471,324.790849 C103.915753,325.160077 103.882119,325.792348 104.251347,326.203066 L104.251347,326.203066 Z M111.22145,333.476391 C111.461035,333.710963 111.701364,333.944773 111.942436,334.177815 C112.339516,334.561672 112.97259,334.550952 113.356446,334.153872 C113.740303,333.756791 113.729583,333.123717 113.332503,332.739861 C113.09448,332.509765 112.85719,332.278913 112.620635,332.047307 C112.226005,331.660933 111.592875,331.667626 111.206501,332.062257 C110.820126,332.456887 110.82682,333.090017 111.22145,333.476391 L111.22145,333.476391 Z M118.641492,340.291979 C118.895987,340.511208 119.15118,340.729625 119.407065,340.947225 C119.827794,341.305004 120.458899,341.253974 120.816678,340.833246 C121.174458,340.412517 121.123427,339.781412 120.702699,339.423633 C120.450052,339.208786 120.198089,338.993134 119.946815,338.776679 C119.528376,338.416225 118.896959,338.46323 118.536504,338.881668 C118.176049,339.300106 118.223054,339.931524 118.641492,340.291979 L118.641492,340.291979 Z M126.476209,346.617427 C126.743843,346.819753 127.012121,347.021224 127.281038,347.221837 C127.723713,347.552075 128.350283,347.460926 128.680521,347.01825 C129.010758,346.575574 128.919609,345.949005 128.476933,345.618767 C128.211425,345.420698 127.946549,345.22178 127.682307,345.022019 C127.241747,344.688964 126.614609,344.776114 126.281554,345.216673 C125.948499,345.657233 126.035649,346.284372 126.476209,346.617427 L126.476209,346.617427 Z M134.712735,352.439621 C134.992059,352.623949 135.271971,352.807385 135.552465,352.989927 C136.015358,353.291171 136.634814,353.160129 136.936059,352.697236 C137.237303,352.234343 137.106261,351.614887 136.643368,351.313642 C136.366439,351.13342 136.090084,350.952315 135.814309,350.77033 C135.353347,350.466139 134.733068,350.593226 134.428876,351.054189 C134.124685,351.515151 134.251773,352.13543 134.712735,352.439621 L134.712735,352.439621 Z M143.301916,357.720414 C143.592673,357.886564 143.883964,358.051784 144.175783,358.216071 C144.657043,358.487009 145.26682,358.316509 145.537758,357.835249 C145.808696,357.353989 145.638196,356.744212 145.156936,356.473275 C144.868836,356.311081 144.581257,356.147967 144.294205,355.983934 C143.814689,355.709921 143.203834,355.876514 142.929821,356.35603 C142.655808,356.835546 142.8224,357.446401 143.301916,357.720414 L143.301916,357.720414 Z M152.21733,362.441274 C152.519156,362.588856 152.821464,362.73547 153.124249,362.881112 C153.621951,363.12051 154.219489,362.911114 154.458887,362.413413 C154.698286,361.915711 154.48889,361.318173 153.991188,361.078775 C153.692273,360.934994 153.393828,360.790254 153.095858,360.644558 C152.599709,360.401959 152.000835,360.607503 151.758236,361.103652 C151.515637,361.599801 151.721181,362.198675 152.21733,362.441274 L152.21733,362.441274 Z M161.419103,366.578355 C161.728918,366.70579 162.039158,366.832234 162.349817,366.957684 C162.861923,367.164482 163.44471,366.916981 163.651509,366.404874 C163.858307,365.892768 163.610806,365.309981 163.098699,365.103182 C162.79202,364.97934 162.485754,364.854516 162.179907,364.728713 C161.669142,364.518623 161.084774,364.762367 160.874684,365.273132 C160.664593,365.783897 160.908338,366.368265 161.419103,366.578355 L161.419103,366.578355 Z M170.823222,370.097248 C171.141176,370.20469 171.459501,370.311113 171.778193,370.416516 C172.302543,370.589938 172.868199,370.305454 173.041621,369.781104 C173.215043,369.256754 172.930559,368.691097 172.406209,368.517676 C172.091604,368.413624 171.777362,368.308566 171.463485,368.202502 C170.940266,368.025698 170.372785,368.306523 170.195981,368.829743 C170.019177,369.352963 170.300002,369.920444 170.823222,370.097248 L170.823222,370.097248 Z M180.369323,372.986341 C180.69303,373.073113 181.017055,373.158852 181.341393,373.243555 C181.875755,373.383109 182.422072,373.063053 182.561626,372.528691 C182.701179,371.994328 182.381124,371.448011 181.846761,371.308458 C181.526582,371.22484 181.206711,371.140201 180.887155,371.054541 C180.353703,370.911546 179.805334,371.228074 179.662339,371.761525 C179.519344,372.294977 179.835871,372.843346 180.369323,372.986341 L180.369323,372.986341 Z M190.175748,375.278639 C190.504568,375.344401 190.833655,375.409117 191.163003,375.472783 C191.705249,375.577605 192.229802,375.223003 192.334624,374.680757 C192.439446,374.138511 192.084843,373.613959 191.542597,373.509136 C191.217461,373.446284 190.892583,373.382397 190.567968,373.317476 C190.026407,373.209167 189.499584,373.560387 189.391276,374.101948 C189.282967,374.643508 189.634187,375.170331 190.175748,375.278639 L190.175748,375.278639 Z M200.099484,376.933713 C200.432099,376.978275 200.76493,377.021782 201.097973,377.064232 C201.645826,377.134061 202.146556,376.746547 202.216385,376.198694 C202.286214,375.650842 201.8987,375.150112 201.350847,375.080282 C201.02204,375.038373 200.693443,374.99542 200.365061,374.951425 C199.817667,374.878088 199.314465,375.262387 199.241128,375.809781 C199.167791,376.357175 199.55209,376.860376 200.099484,376.933713 L200.099484,376.933713 Z M210.128633,377.951982 C210.463172,377.975195 210.79788,377.997352 211.132753,378.018452 C211.683944,378.053184 212.158929,377.63451 212.19366,377.083318 C212.228392,376.532127 211.809718,376.057142 211.258526,376.022411 C210.927876,376.001576 210.597391,375.979699 210.267073,375.956779 C209.716113,375.91855 209.23848,376.334201 209.200251,376.885161 C209.162022,377.436121 209.577673,377.913753 210.128633,377.951982 L210.128633,377.951982 Z M220.190176,378.330653 C220.514761,378.332629 220.839462,378.333619 221.164277,378.333624 C221.716562,378.333633 222.164284,377.885925 222.164293,377.33364 C222.164302,376.781355 221.716593,376.333633 221.164309,376.333624 C220.84354,376.333619 220.522886,376.332641 220.202347,376.33069 C219.650073,376.327329 219.199641,376.772312 219.19628,377.324586 C219.192919,377.876861 219.637901,378.327292 220.190176,378.330653 L220.190176,378.330653 Z" id="Oval-47" fill="#233368"></path>
            <path d="M220.872522,304.745043 C221.210059,304.745043 221.547366,304.743049 221.884433,304.739063 C222.43668,304.732532 222.879069,304.279554 222.872539,303.727308 C222.866008,303.175062 222.41303,302.732672 221.860784,302.739203 C221.5316,302.743096 221.202175,302.745043 220.872522,302.745043 C220.320237,302.745043 219.872522,303.192759 219.872522,303.745043 C219.872522,304.297328 220.320237,304.745043 220.872522,304.745043 L220.872522,304.745043 Z M230.974942,304.142749 C231.310804,304.102423 231.646271,304.060087 231.98133,304.015743 C232.528841,303.943284 232.913946,303.440698 232.841487,302.893188 C232.769027,302.345677 232.266442,301.960572 231.718931,302.033032 C231.391857,302.076318 231.064384,302.117645 230.736522,302.15701 C230.188176,302.222848 229.797025,302.720743 229.862863,303.269089 C229.928701,303.817436 230.426596,304.208586 230.974942,304.142749 L230.974942,304.142749 Z M240.931854,302.330916 C241.259272,302.250558 241.586118,302.168233 241.912379,302.083947 C242.447108,301.945804 242.768605,301.400334 242.630463,300.865605 C242.49232,300.330876 241.94685,300.009379 241.412121,300.147522 C241.093697,300.229784 240.774701,300.310131 240.455145,300.388559 C239.918778,300.520198 239.590682,301.061725 239.722321,301.598091 C239.853961,302.134458 240.395487,302.462555 240.931854,302.330916 L240.931854,302.330916 Z M250.615322,299.318207 C250.930946,299.198473 251.245806,299.076835 251.559885,298.953299 C252.073842,298.751145 252.326609,298.170622 252.124455,297.656665 C251.922301,297.142707 251.341779,296.88994 250.827821,297.092094 C250.521284,297.212664 250.213985,297.331381 249.905941,297.44824 C249.389563,297.64413 249.129757,298.221537 249.325648,298.737914 C249.521538,299.254291 250.098945,299.514097 250.615322,299.318207 L250.615322,299.318207 Z M259.827426,295.16881 C260.126426,295.011719 260.424464,294.852823 260.721524,294.692131 C261.207291,294.42936 261.388065,293.82255 261.125294,293.336782 C260.862523,292.851015 260.255712,292.670242 259.769945,292.933013 C259.479986,293.089864 259.189073,293.244961 258.897222,293.398295 C258.408308,293.655164 258.220198,294.25974 258.477067,294.748654 C258.733935,295.237569 259.338512,295.425679 259.827426,295.16881 L259.827426,295.16881 Z M268.499671,289.919805 C268.776941,289.728191 269.053058,289.534911 269.328007,289.339976 C269.778546,289.02055 269.884834,288.39637 269.565408,287.945831 C269.245982,287.495292 268.621802,287.389004 268.171263,287.70843 C267.902852,287.89873 267.633302,288.087413 267.362627,288.274468 C266.90828,288.588454 266.794495,289.211311 267.108481,289.665658 C267.422466,290.120005 268.045323,290.233791 268.499671,289.919805 L268.499671,289.919805 Z M276.485626,283.657387 C276.737924,283.433745 276.988881,283.20859 277.238482,282.981937 C277.647348,282.61066 277.677821,281.978229 277.306544,281.569362 C276.935268,281.160495 276.302836,281.130023 275.89397,281.501299 C275.650286,281.72258 275.405279,281.942396 275.158962,282.160736 C274.745674,282.527084 274.707621,283.159105 275.073969,283.572394 C275.440317,283.985682 276.072338,284.023735 276.485626,283.657387 L276.485626,283.657387 Z M283.652171,276.49151 C283.876059,276.238983 284.098428,275.985115 284.319266,275.729921 C284.680666,275.312299 284.635089,274.680777 284.217466,274.319377 C283.799844,273.957977 283.168321,274.003554 282.806921,274.421177 C282.59132,274.670319 282.374223,274.918167 282.155644,275.164707 C281.789258,275.577961 281.827251,276.209985 282.240506,276.576372 C282.65376,276.942758 283.285784,276.904764 283.652171,276.49151 L283.652171,276.49151 Z M289.86597,268.577478 C290.058119,268.3001 290.248596,268.021568 290.43739,267.741898 C290.746397,267.28415 290.625818,266.662573 290.16807,266.353566 C289.710322,266.044559 289.088745,266.165138 288.779738,266.622886 C288.595437,266.8959 288.409492,267.167804 288.221914,267.438583 C287.907417,267.892577 288.020501,268.515561 288.474495,268.830058 C288.928488,269.144555 289.551473,269.031471 289.86597,268.577478 L289.86597,268.577478 Z M295.120799,259.918671 C295.278207,259.619962 295.433809,259.320293 295.587597,259.01968 C295.83913,258.528 295.644452,257.925506 295.152772,257.673973 C294.661092,257.42244 294.058598,257.617117 293.807065,258.108798 C293.656957,258.402219 293.505076,258.69472 293.351433,258.986285 C293.093962,259.474882 293.281327,260.07969 293.769924,260.337161 C294.258521,260.594632 294.863328,260.407268 295.120799,259.918671 L295.120799,259.918671 Z M299.295464,250.675205 C299.415348,250.359915 299.533329,250.043864 299.649399,249.727067 C299.839398,249.208493 299.573035,248.634082 299.054461,248.444083 C298.535887,248.254085 297.961475,248.520448 297.771477,249.039022 C297.658195,249.348209 297.543047,249.656668 297.426043,249.964385 C297.229755,250.480612 297.489117,251.058218 298.005344,251.254506 C298.52157,251.450793 299.099176,251.191431 299.295464,250.675205 L299.295464,250.675205 Z M302.31735,240.987045 C302.398004,240.659388 302.476685,240.33116 302.553389,240.002377 C302.678867,239.464535 302.344579,238.926809 301.806737,238.801332 C301.268895,238.675855 300.731169,239.010143 300.605691,239.547984 C300.530829,239.868875 300.454036,240.189222 300.375319,240.509012 C300.243314,241.045289 300.571041,241.587039 301.107318,241.719044 C301.643595,241.851049 302.185345,241.523322 302.31735,240.987045 L302.31735,240.987045 Z M304.139786,230.999588 C304.180071,230.664897 304.218359,230.329818 304.254645,229.994363 C304.31404,229.445281 303.91707,228.952014 303.367988,228.892619 C302.818907,228.833225 302.325639,229.230194 302.266245,229.779276 C302.230821,230.106752 302.193445,230.433858 302.154118,230.760582 C302.088118,231.308909 302.479122,231.806919 303.027449,231.872919 C303.575775,231.938919 304.073786,231.547915 304.139786,230.999588 L304.139786,230.999588 Z M304.745042,220.859803 C304.744992,220.522308 304.742948,220.185043 304.738913,219.848018 C304.732301,219.295773 304.279258,218.85345 303.727013,218.860062 C303.174768,218.866674 302.732445,219.319717 302.739057,219.871962 C302.742997,220.201105 302.744993,220.530488 302.745042,220.860099 C302.745124,221.412384 303.192906,221.860033 303.745191,221.859951 C304.297476,221.859869 304.745124,221.412087 304.745042,220.859803 L304.745042,220.859803 Z M304.140774,210.75367 C304.100389,210.417873 304.057994,210.08247 304.013593,209.747474 C303.941026,209.199978 303.438366,208.814971 302.890869,208.887537 C302.343372,208.960104 301.958366,209.462765 302.030932,210.010261 C302.074275,210.337272 302.11566,210.664683 302.155083,210.992481 C302.221029,211.540815 302.719001,211.931867 303.267334,211.865921 C303.815668,211.799975 304.20672,211.302004 304.140774,210.75367 L304.140774,210.75367 Z M302.327044,200.797419 C302.246636,200.470072 302.164261,200.143297 302.079926,199.817107 C301.941681,199.282405 301.396149,198.961013 300.861446,199.099259 C300.326744,199.237504 300.005352,199.783036 300.143598,200.317739 C300.225907,200.636093 300.306303,200.95502 300.38478,201.274506 C300.516524,201.810847 301.058114,202.138838 301.594455,202.007094 C302.130796,201.875351 302.458787,201.33376 302.327044,200.797419 L302.327044,200.797419 Z M299.312525,191.114749 C299.192752,190.799203 299.071075,190.484422 298.947501,190.170422 C298.745249,189.656503 298.164678,189.403846 297.650759,189.606097 C297.13684,189.808349 296.884184,190.38892 297.086435,190.902839 C297.207042,191.2093 297.325798,191.516522 297.442694,191.82449 C297.638684,192.340829 298.216141,192.600524 298.73248,192.404535 C299.24882,192.208545 299.508515,191.631088 299.312525,191.114749 L299.312525,191.114749 Z M295.161431,181.903576 C295.004313,181.604661 294.84539,181.306709 294.684673,181.009734 C294.42181,180.524016 293.814966,180.343356 293.329248,180.606218 C292.84353,180.86908 292.66287,181.475924 292.925732,181.961642 C293.082608,182.251518 293.237732,182.542347 293.391093,182.834115 C293.648054,183.32298 294.252666,183.510976 294.741531,183.254014 C295.230397,182.997053 295.418392,182.392441 295.161431,181.903576 L295.161431,181.903576 Z M289.910838,173.232401 C289.719212,172.955223 289.52592,172.679198 289.330974,172.404341 C289.011464,171.953861 288.387264,171.847689 287.936784,172.167198 C287.486305,172.486708 287.380132,173.110907 287.699642,173.561387 C287.889952,173.829708 288.078647,174.099168 288.265715,174.369753 C288.579786,174.824041 289.202664,174.937709 289.656953,174.623638 C290.111241,174.309567 290.224909,173.686689 289.910838,173.232401 L289.910838,173.232401 Z M283.646955,165.24765 C283.423316,164.995452 283.198167,164.744594 282.971519,164.495092 C282.600167,164.086293 281.967731,164.055937 281.558932,164.427288 C281.150134,164.79864 281.119777,165.431077 281.491129,165.839876 C281.712403,166.083463 281.932215,166.328374 282.150551,166.574593 C282.516977,166.987813 283.149004,167.025748 283.562224,166.659323 C283.975445,166.292898 284.01338,165.660871 283.646955,165.24765 L283.646955,165.24765 Z M276.479742,158.082441 C276.227239,157.858659 275.973397,157.636395 275.71823,157.415662 C275.300542,157.054338 274.669028,157.100032 274.307704,157.51772 C273.946381,157.935409 273.992074,158.566923 274.409763,158.928247 C274.658879,159.143745 274.906702,159.360739 275.153218,159.579215 C275.566541,159.945525 276.198558,159.907413 276.564867,159.49409 C276.931177,159.080768 276.893065,158.448751 276.479742,158.082441 L276.479742,158.082441 Z M268.564514,151.870095 C268.287187,151.678058 268.008707,151.487692 267.72909,151.299009 C267.271285,150.990086 266.64973,151.110779 266.340807,151.568584 C266.031884,152.026388 266.152577,152.647944 266.610382,152.956866 C266.883345,153.14106 267.155199,153.326896 267.425928,153.514365 C267.879981,153.828776 268.502944,153.715575 268.817356,153.261523 C269.131768,152.80747 269.018567,152.184507 268.564514,151.870095 L268.564514,151.870095 Z M259.904637,146.616851 C259.606015,146.459561 259.306434,146.304075 259.005909,146.150403 C258.514183,145.898961 257.911725,146.09375 257.660283,146.585477 C257.40884,147.077204 257.603629,147.679661 258.095356,147.931103 C258.388691,148.081099 258.681107,148.232866 258.972587,148.386394 C259.461233,148.643772 260.066005,148.456293 260.323384,147.967647 C260.580762,147.479001 260.393283,146.874229 259.904637,146.616851 L259.904637,146.616851 Z M250.660236,142.44389 C250.345087,142.324128 250.029179,142.206268 249.712525,142.090318 C249.193916,141.900416 248.619554,142.166885 248.429652,142.685495 C248.23975,143.204104 248.50622,143.778466 249.024829,143.968368 C249.333876,144.081534 249.642197,144.196563 249.949776,144.313447 C250.46604,144.509635 251.043597,144.250163 251.239785,143.733898 C251.435973,143.217634 251.1765,142.640078 250.660236,142.44389 L250.660236,142.44389 Z M240.971278,139.423814 C240.643863,139.343288 240.31588,139.264731 239.987342,139.188148 C239.449477,139.06277 238.911813,139.397158 238.786435,139.935023 C238.661058,140.472888 238.995445,141.010552 239.53331,141.13593 C239.853961,141.210674 240.17407,141.287345 240.493623,141.365938 C241.029926,141.497838 241.571612,141.170006 241.703512,140.633703 C241.835413,140.0974 241.507581,139.555714 240.971278,139.423814 L240.971278,139.423814 Z M230.983158,137.603282 C230.648392,137.563054 230.313237,137.524825 229.977707,137.488598 C229.428614,137.429313 228.935425,137.826381 228.87614,138.375474 C228.816855,138.924568 229.213923,139.417756 229.763017,139.477042 C230.090565,139.512407 230.417745,139.549726 230.744542,139.588996 C231.292882,139.654888 231.790816,139.263787 231.856707,138.715447 C231.922599,138.167107 231.531498,137.669173 230.983158,137.603282 L230.983158,137.603282 Z M220.842844,137.000005 C220.505407,137.000122 220.168198,137.002232 219.831231,137.006333 C219.278987,137.013053 218.836753,137.466183 218.843473,138.018427 C218.850193,138.570671 219.303323,139.012905 219.855567,139.006185 C220.184654,139.00218 220.513981,139.000119 220.843537,139.000005 C221.395822,138.999814 221.843382,138.551943 221.843191,137.999659 C221.842999,137.447374 221.395129,136.999814 220.842844,137.000005 L220.842844,137.000005 Z M210.73724,137.606247 C210.401507,137.646691 210.066168,137.689145 209.731237,137.733604 C209.183754,137.806278 208.798846,138.309014 208.871519,138.856496 C208.944193,139.403978 209.446928,139.788887 209.994411,139.716214 C210.321358,139.672814 210.648706,139.631372 210.976442,139.591891 C211.524763,139.525837 211.915717,139.027788 211.849663,138.479468 C211.783609,137.931147 211.28556,137.540193 210.73724,137.606247 L210.73724,137.606247 Z M200.78165,139.421875 C200.454374,139.502333 200.12767,139.584757 199.801552,139.669141 C199.266876,139.807489 198.94559,140.353083 199.083938,140.887759 C199.222287,141.422435 199.767881,141.743721 200.302557,141.605372 C200.620842,141.523015 200.939699,141.442571 201.259115,141.364046 C201.795431,141.232197 202.123316,140.690543 201.991468,140.154227 C201.859619,139.617912 201.317965,139.290026 200.78165,139.421875 L200.78165,139.421875 Z M191.099777,142.438202 C190.78431,142.558015 190.469608,142.679732 190.155686,142.803344 C189.641805,143.005693 189.389259,143.586312 189.591608,144.100192 C189.793957,144.614073 190.374576,144.866619 190.888457,144.66427 C191.194841,144.543626 191.501986,144.424832 191.809878,144.307897 C192.32618,144.111808 192.585763,143.534301 192.389675,143.017999 C192.193586,142.501697 191.616079,142.242113 191.099777,142.438202 L191.099777,142.438202 Z M181.889535,146.590994 C181.590706,146.748139 181.29284,146.907089 180.99595,147.067832 C180.510282,147.330785 180.329735,147.937663 180.592688,148.423332 C180.855642,148.909 181.46252,149.089547 181.948188,148.826594 C182.237981,148.669693 182.528726,148.514544 182.82041,148.361156 C183.309227,148.104102 183.497107,147.499454 183.240053,147.010637 C182.982999,146.521821 182.378352,146.33394 181.889535,146.590994 L181.889535,146.590994 Z M173.21943,151.843174 C172.942345,152.034813 172.666412,152.228117 172.391647,152.423075 C171.941227,152.742668 171.83517,153.366887 172.154762,153.817308 C172.474355,154.267728 173.098575,154.373785 173.548995,154.054193 C173.817226,153.863871 174.086596,153.675165 174.357091,153.488084 C174.81132,153.173928 174.924872,152.551028 174.610715,152.096799 C174.296559,151.642569 173.673659,151.529018 173.21943,151.843174 L173.21943,151.843174 Z M165.235885,158.108523 C164.983786,158.332158 164.733027,158.557302 164.483624,158.783944 C164.074893,159.155371 164.044653,159.787813 164.41608,160.196543 C164.787507,160.605274 165.419949,160.635514 165.828679,160.264087 C166.072171,160.042818 166.316985,159.823011 166.563107,159.604679 C166.976259,159.238177 167.014076,158.606142 166.647574,158.19299 C166.281072,157.779838 165.649037,157.742021 165.235885,158.108523 L165.235885,158.108523 Z M158.072012,165.277071 C157.848336,165.529549 157.626177,165.783366 157.405549,166.038506 C157.044302,166.456261 157.090111,167.087767 157.507866,167.449013 C157.925621,167.81026 158.557126,167.764451 158.918373,167.346696 C159.13377,167.097606 159.350661,166.849808 159.569033,166.603316 C159.935266,166.189925 159.897036,165.557915 159.483645,165.191683 C159.070254,164.82545 158.438244,164.86368 158.072012,165.277071 L158.072012,165.277071 Z M151.861119,173.193494 C151.669194,173.470771 151.478939,173.749199 151.290366,174.028764 C150.981528,174.486625 151.102335,175.108159 151.560196,175.416997 C152.018058,175.725836 152.639591,175.605028 152.94843,175.147167 C153.132515,174.874255 153.318243,174.602452 153.505602,174.331772 C153.819929,173.877661 153.706611,173.254718 153.252499,172.940392 C152.798388,172.626065 152.175446,172.739383 151.861119,173.193494 L151.861119,173.193494 Z M146.60946,181.854441 C146.452288,182.152977 146.296919,182.452471 146.143363,182.752906 C145.892011,183.24468 146.086912,183.847101 146.578685,184.098453 C147.070458,184.349804 147.67288,184.154903 147.924231,183.66313 C148.074114,183.369882 148.225767,183.077552 148.37918,182.786155 C148.636466,182.297461 148.448872,181.692724 147.960177,181.435438 C147.471482,181.178152 146.866746,181.365746 146.60946,181.854441 L146.60946,181.854441 Z M142.438202,191.099777 C142.318349,191.41535 142.200403,191.731685 142.08437,192.048766 C141.894576,192.567414 142.161165,193.141721 142.679814,193.331515 C143.198463,193.52131 143.772769,193.25472 143.962564,192.736072 C144.075809,192.426607 144.190922,192.117871 144.307897,191.809878 C144.503986,191.293576 144.244402,190.716069 143.7281,190.51998 C143.211798,190.323891 142.634291,190.583475 142.438202,191.099777 L142.438202,191.099777 Z M139.419937,200.789534 C139.339442,201.117099 139.260917,201.445233 139.184369,201.773921 C139.059099,202.311811 139.393594,202.849409 139.931484,202.974678 C140.469374,203.099948 141.006972,202.765453 141.132241,202.227563 C141.206952,201.906766 141.283592,201.58651 141.362154,201.266811 C141.49395,200.730482 141.166012,200.18886 140.629684,200.057064 C140.093355,199.925268 139.551733,200.253206 139.419937,200.789534 L139.419937,200.789534 Z M137.601309,210.778317 C137.561139,211.113156 137.522969,211.448384 137.486802,211.783986 C137.427626,212.333092 137.824792,212.826201 138.373898,212.885377 C138.923003,212.944553 139.416112,212.547387 139.475288,211.998281 C139.510595,211.670661 139.547857,211.34341 139.58707,211.016541 C139.652854,210.468188 139.261655,209.970332 138.713302,209.904548 C138.164949,209.838765 137.667093,210.229964 137.601309,210.778317 L137.601309,210.778317 Z M137.000013,220.919156 C137.000196,221.256538 137.002373,221.593689 137.006539,221.9306 C137.013368,222.482842 137.466585,222.924988 138.018827,222.918159 C138.57107,222.91133 139.013215,222.458113 139.006386,221.90587 C139.002317,221.57684 139.000192,221.247568 139.000012,220.918068 C138.999712,220.365783 138.551753,219.918312 137.999468,219.918612 C137.447184,219.918913 136.999712,220.366872 137.000013,220.919156 L137.000013,220.919156 Z M137.608228,231.024232 C137.648731,231.359902 137.691244,231.695176 137.735761,232.030043 C137.808542,232.577511 138.311353,232.962322 138.858821,232.889541 C139.406289,232.816761 139.791099,232.31395 139.718319,231.766482 C139.674863,231.439597 139.633363,231.112312 139.593825,230.784639 C139.527663,230.236331 139.029537,229.845475 138.481229,229.911637 C137.932922,229.977799 137.542066,230.475925 137.608228,231.024232 L137.608228,231.024232 Z M139.425753,240.979162 C139.506261,241.306367 139.588734,241.632999 139.673167,241.959046 C139.811619,242.493695 140.357275,242.814876 140.891924,242.676424 C141.426573,242.537973 141.747754,241.992316 141.609302,241.457668 C141.526898,241.139452 141.446405,240.820664 141.367831,240.501318 C141.235877,239.965028 140.69416,239.637248 140.15787,239.769201 C139.62158,239.901154 139.2938,240.442872 139.425753,240.979162 L139.425753,240.979162 Z M142.44389,250.660236 C142.563742,250.975625 142.685497,251.290249 142.809147,251.604092 C143.011594,252.117934 143.592261,252.37037 144.106103,252.167923 C144.619945,251.965476 144.872381,251.384809 144.669934,250.870967 C144.549253,250.56466 144.430422,250.257591 144.313447,249.949776 C144.117259,249.433512 143.539703,249.174039 143.023438,249.370227 C142.507174,249.566415 142.247701,250.143972 142.44389,250.660236 L142.44389,250.660236 Z M146.598379,259.869547 C146.755551,260.16829 146.914527,260.466071 147.075295,260.762875 C147.33834,261.248494 147.945251,261.428927 148.430871,261.165883 C148.91649,260.902839 149.096923,260.295927 148.833879,259.810308 C148.676953,259.520599 148.521778,259.229937 148.368363,258.938336 C148.111217,258.449568 147.506533,258.261802 147.017766,258.518949 C146.528998,258.776096 146.341232,259.380779 146.598379,259.869547 L146.598379,259.869547 Z M151.852145,268.538582 C152.043797,268.815575 152.237113,269.091415 152.432082,269.366088 C152.751758,269.81645 153.375997,269.922391 153.826359,269.602715 C154.27672,269.283039 154.382662,268.6588 154.062986,268.208438 C153.872654,267.940297 153.683935,267.671017 153.496842,267.400613 C153.1826,266.946443 152.559679,266.833008 152.105509,267.147249 C151.651339,267.461491 151.537904,268.084412 151.852145,268.538582 L151.852145,268.538582 Z M158.11896,276.520921 C158.34259,276.772921 158.56773,277.023581 158.794365,277.272886 C159.165867,277.681548 159.798315,277.711672 160.206977,277.34017 C160.615639,276.968668 160.645764,276.33622 160.274262,275.927558 C160.052999,275.684163 159.833197,275.439446 159.614868,275.19342 C159.248289,274.780336 158.616247,274.742637 158.203164,275.109216 C157.79008,275.475796 157.752381,276.107837 158.11896,276.520921 L158.11896,276.520921 Z M165.288843,283.683458 C165.541296,283.907029 165.795087,284.129082 166.050201,284.349606 C166.468022,284.710776 167.099519,284.664851 167.460689,284.24703 C167.82186,283.829209 167.775935,283.197712 167.358114,282.836541 C167.109049,282.621247 166.861276,282.404459 166.614809,282.18619 C166.20135,281.820034 165.569347,281.858381 165.203191,282.271841 C164.837036,282.6853 164.875383,283.317303 165.288843,283.683458 L165.288843,283.683458 Z M173.199978,289.888411 C173.477229,290.080281 173.755631,290.27048 174.035169,290.458998 C174.493059,290.767794 175.114582,290.64693 175.423378,290.18904 C175.732174,289.73115 175.61131,289.109628 175.15342,288.800831 C174.880534,288.6168 174.608756,288.431126 174.338101,288.243822 C173.88396,287.929538 173.261029,288.042914 172.946744,288.497055 C172.63246,288.951196 172.745837,289.574127 173.199978,289.888411 L173.199978,289.888411 Z M181.868478,295.142972 C182.166927,295.300026 182.466333,295.455278 182.76668,295.608719 C183.2585,295.85998 183.860886,295.664968 184.112146,295.173148 C184.363406,294.681328 184.168394,294.078943 183.676575,293.827682 C183.383413,293.677912 183.091168,293.526373 182.799856,293.373075 C182.311113,293.115882 181.706412,293.303591 181.449219,293.792334 C181.192025,294.281078 181.379734,294.885779 181.868478,295.142972 L181.868478,295.142972 Z M191.114749,299.312525 C191.43018,299.432255 191.746372,299.550081 192.06331,299.665994 C192.581994,299.855692 193.156251,299.588996 193.345948,299.070312 C193.535646,298.551628 193.26895,297.977371 192.750266,297.787673 C192.440942,297.674544 192.132345,297.559549 191.82449,297.442694 C191.30815,297.246705 190.730693,297.5064 190.534704,298.02274 C190.338714,298.539079 190.598409,299.116536 191.114749,299.312525 L191.114749,299.312525 Z M200.805304,302.32898 C201.133019,302.409444 201.461302,302.487936 201.79014,302.56445 C202.328055,302.689613 202.865586,302.35501 202.990748,301.817095 C203.11591,301.27918 202.781308,300.741649 202.243393,300.616487 C201.922449,300.541809 201.602047,300.465202 201.282202,300.38667 C200.745848,300.254978 200.20429,300.583022 200.072598,301.119376 C199.940906,301.65573 200.26895,302.197288 200.805304,302.32898 L200.805304,302.32898 Z M210.794749,304.145704 C211.129458,304.185791 211.464554,304.22388 211.800025,304.259968 C212.349141,304.319039 212.842174,303.921778 212.901245,303.372661 C212.960316,302.823545 212.563055,302.330512 212.013938,302.271441 C211.686447,302.236211 211.359324,302.199028 211.032582,302.159896 C210.484217,302.09422 209.986437,302.485518 209.920762,303.033884 C209.855086,303.582249 210.246384,304.080029 210.794749,304.145704 L210.794749,304.145704 Z" id="Oval-47" fill="#233368"></path>
            <path d="M220.655131,243.310263 C221.004825,243.310263 221.353616,243.302332 221.701326,243.286516 C222.25304,243.26142 222.679948,242.793822 222.654852,242.242108 C222.629756,241.690394 222.162159,241.263485 221.610444,241.288582 C221.293006,241.303021 220.974517,241.310263 220.655131,241.310263 C220.102847,241.310263 219.655131,241.757978 219.655131,242.310263 C219.655131,242.862547 220.102847,243.310263 220.655131,243.310263 L220.655131,243.310263 Z M230.771474,240.93147 C231.083515,240.775496 231.391858,240.612331 231.69627,240.442121 C232.178317,240.172587 232.350594,239.56331 232.08106,239.081262 C231.811526,238.599214 231.202249,238.426938 230.720201,238.696472 C230.44272,238.851624 230.161669,239.000347 229.877261,239.142509 C229.383253,239.389439 229.182957,239.990088 229.429887,240.484096 C229.676817,240.978104 230.277466,241.1784 230.771474,240.93147 L230.771474,240.93147 Z M238.755979,234.281225 C238.965928,234.002751 239.169444,233.719481 239.366349,233.431644 C239.678176,232.975813 239.561438,232.353503 239.105607,232.041675 C238.649776,231.729848 238.027466,231.846586 237.715638,232.302417 C237.536072,232.564908 237.350469,232.823244 237.158993,233.077217 C236.826515,233.518212 236.914486,234.145236 237.355482,234.477714 C237.796477,234.810191 238.423501,234.72222 238.755979,234.281225 L238.755979,234.281225 Z M242.953526,224.680635 C243.015025,224.3378 243.068661,223.993133 243.114366,223.646833 C243.18663,223.099296 242.801346,222.596849 242.253809,222.524584 C241.706273,222.45232 241.203825,222.837605 241.131561,223.385141 C241.089895,223.700841 241.041002,224.015021 240.984948,224.327503 C240.887433,224.87111 241.249063,225.390843 241.792671,225.488358 C242.336278,225.585872 242.856011,225.224242 242.953526,224.680635 L242.953526,224.680635 Z M242.387919,214.236604 C242.289166,213.901729 242.182694,213.569429 242.068609,213.239927 C241.887912,212.718039 241.318355,212.441448 240.796467,212.622145 C240.274579,212.802841 239.997988,213.372399 240.178685,213.894287 C240.282623,214.194481 240.379623,214.497221 240.469592,214.802308 C240.625807,215.33204 241.181876,215.634834 241.711608,215.478619 C242.241339,215.322404 242.544134,214.766335 242.387919,214.236604 L242.387919,214.236604 Z M237.195058,205.173234 C236.956823,204.918818 236.712774,204.669892 236.46312,204.426669 C236.067534,204.041272 235.434423,204.049532 235.049027,204.445118 C234.66363,204.840703 234.67189,205.473815 235.067476,205.859211 C235.295221,206.081091 235.517854,206.308172 235.735182,206.540261 C236.112676,206.943395 236.745499,206.96418 237.148633,206.586686 C237.551767,206.209192 237.572552,205.576368 237.195058,205.173234 L237.195058,205.173234 Z M228.563539,199.41888 C228.236794,199.297152 227.907102,199.182977 227.574691,199.076466 C227.048745,198.907944 226.485768,199.197693 226.317245,199.723638 C226.148723,200.249584 226.438472,200.812561 226.964417,200.981083 C227.267262,201.078121 227.567632,201.182141 227.865323,201.293045 C228.382859,201.485852 228.958706,201.222608 229.151513,200.705071 C229.344321,200.187535 229.081076,199.611688 228.563539,199.41888 L228.563539,199.41888 Z M218.153924,198.13659 C217.806464,198.174769 217.460512,198.220901 217.116267,198.274919 C216.570658,198.360536 216.197761,198.872244 216.283378,199.417853 C216.368994,199.963461 216.880703,200.336358 217.426311,200.250741 C217.740135,200.201496 218.055547,200.159437 218.372372,200.124624 C218.921352,200.064301 219.317488,199.570364 219.257165,199.021383 C219.196843,198.472403 218.702905,198.076267 218.153924,198.13659 L218.153924,198.13659 Z M208.345845,201.632703 C208.053277,201.822393 207.765118,202.018808 207.481599,202.221773 C207.032524,202.543255 206.92909,203.167914 207.250571,203.616989 C207.572053,204.066063 208.196712,204.169498 208.645787,203.848016 C208.904339,203.662925 209.167112,203.483814 209.433893,203.310842 C209.897298,203.010386 210.029395,202.391154 209.728938,201.927749 C209.428482,201.464343 208.80925,201.332247 208.345845,201.632703 L208.345845,201.632703 Z M201.149187,209.12573 C200.9715,209.42573 200.800752,209.729818 200.637096,210.037762 C200.377914,210.525454 200.563158,211.130915 201.05085,211.390096 C201.538542,211.649278 202.144003,211.464034 202.403184,210.976342 C202.552363,210.695639 202.708014,210.418437 202.869998,210.14495 C203.151447,209.669761 202.994391,209.056384 202.519202,208.774934 C202.044013,208.493485 201.430636,208.650541 201.149187,209.12573 L201.149187,209.12573 Z M198.048622,219.159456 C198.025985,219.506553 198.01123,219.854837 198.004404,220.204126 C197.993612,220.756305 198.432494,221.212683 198.984673,221.223474 C199.536853,221.234266 199.993231,220.795384 200.004022,220.243205 C200.010254,219.924306 200.023723,219.60639 200.044382,219.289615 C200.080325,218.738501 199.662696,218.262598 199.111582,218.226655 C198.560468,218.190713 198.084565,218.608342 198.048622,219.159456 L198.048622,219.159456 Z M199.778664,229.468873 C199.914568,229.790401 200.057891,230.108636 200.208501,230.423346 C200.44691,230.921522 201.044031,231.132104 201.542207,230.893694 C202.040383,230.655284 202.250965,230.058163 202.012555,229.559987 C201.875304,229.273192 201.744699,228.983196 201.620859,228.69021 C201.405837,228.181502 200.819138,227.943422 200.31043,228.158444 C199.801722,228.373466 199.563642,228.960165 199.778664,229.468873 L199.778664,229.468873 Z M205.877737,237.827796 C206.141834,238.055254 206.411119,238.276621 206.68537,238.491704 C207.119949,238.832527 207.748535,238.756522 208.089357,238.321943 C208.43018,237.887365 208.354175,237.258778 207.919596,236.917956 C207.669446,236.721773 207.423819,236.519854 207.182918,236.312375 C206.764446,235.951959 206.133033,235.999023 205.772617,236.417495 C205.412201,236.835967 205.459265,237.46738 205.877737,237.827796 L205.877737,237.827796 Z M215.171419,242.641839 C215.509643,242.725933 215.850103,242.802239 216.192588,242.870672 C216.734167,242.978888 217.260929,242.627577 217.369145,242.085998 C217.47736,241.544419 217.12605,241.017657 216.584471,240.909441 C216.272388,240.847082 215.962166,240.777554 215.653994,240.700932 C215.118027,240.567672 214.575512,240.894131 214.442253,241.430098 C214.308993,241.966065 214.635452,242.50858 215.171419,242.641839 L215.171419,242.641839 Z" id="Oval-47" fill="#233368"></path>
        </g>
    </g>
</svg>