<?xml version="1.0" encoding="UTF-8" standalone="no"?>
<svg width="38px" height="54px" viewBox="0 0 38 54" version="1.1" xmlns="http://www.w3.org/2000/svg" xmlns:xlink="http://www.w3.org/1999/xlink">
    <!-- Generator: Sketch 3.6.1 (26313) - http://www.bohemiancoding.com/sketch -->
    <title>Slice 1</title>
    <desc>Created with Sketch.</desc>
    <defs></defs>
    <g id="Page-1" stroke="none" stroke-width="1" fill="none" fill-rule="evenodd">
        <g id="Group-2" fill="#233368">
            <path d="M8.59572552,33.6587434 C4.75434489,35.8252133 3.49809852e-08,43.9438333 3.49809852e-08,47.5116278 C3.49809852e-08,50.233743 2.14010185,51.7495246 5.94765657,52.4422206 C8.60877864,52.9263499 11.2179887,53.0189179 17.5680601,53.0142744 C18.0010529,53.0139579 18.193373,53.0138477 18.4339434,53.0138237 C18.466973,53.0138209 18.466973,53.0138209 18.5,53.0138204 C18.5330271,53.0138209 18.5330271,53.0138209 18.5660568,53.0138237 C18.8066272,53.0138477 18.9989472,53.0139579 19.4319399,53.0142744 C25.7820113,53.0189179 28.3912214,52.9263499 31.0523435,52.4422206 C34.8598982,51.7495246 37,50.233743 37,47.5116278 C37,43.9393586 32.2383739,35.8167196 28.389573,33.6504605 L27.4086004,35.3933582 C30.6286637,37.2057387 35,44.6626003 35,47.5116278 C35,48.9888073 33.6655214,49.9339857 30.6943658,50.4745184 C28.2008809,50.92815 25.6452444,51.0188173 19.4334024,51.014275 C19.0001981,51.0139583 18.8073877,51.0138478 18.5662566,51.0138237 C18.5331295,51.0138209 18.5331295,51.0138209 18.5,51.0138204 C18.4668706,51.0138209 18.4668706,51.0138209 18.4337436,51.0138237 C18.1926124,51.0138478 17.999802,51.0139583 17.5665976,51.014275 C11.3547557,51.0188173 8.79911914,50.92815 6.30563424,50.4745184 C3.33447867,49.9339857 2.00000003,48.9888073 2.00000003,47.5116278 C2.00000003,44.6664406 6.36473061,37.2131343 9.57820869,35.4007901 L8.59572552,33.6587434 L8.59572552,33.6587434 Z" id="Oval-50"></path>
            <path d="M18.8450452,32.9302326 C25.2878761,32.9302326 31.231547,21.595959 31.231547,12.4015035 C31.231547,4.66528665 26.1655316,0 18.8450455,0 C11.5245594,0 6.45854398,4.66528665 6.45854398,12.4015035 C6.45854398,21.5959593 12.4022143,32.9302326 18.8450452,32.9302326 L18.8450452,32.9302326 Z M18.8450452,30.9302326 C13.8563683,30.9302326 8.45854398,20.6368595 8.45854398,12.4015035 C8.45854398,5.80834079 12.5940055,2 18.8450455,2 C25.0960855,2 29.231547,5.80834079 29.231547,12.4015035 C29.231547,20.6368593 23.8337221,30.9302326 18.8450452,30.9302326 L18.8450452,30.9302326 Z" id="Oval-49"></path>
        </g>
    </g>
</svg>